<?xml version="1.0" encoding="UTF-8"?>
<svg version="1.1" xmlns="http://www.w3.org/2000/svg" width="1024" height="1024">
<path d="M0 0 C0.79882709 -0.00175304 1.59765418 -0.00350607 2.42068815 -0.00531223 C5.08407803 -0.00994562 7.74741267 -0.00751363 10.41080475 -0.00507832 C12.34511309 -0.00694764 14.27942106 -0.00924883 16.21372843 -0.01194364 C21.51931785 -0.01805322 26.82489149 -0.01792903 32.13048363 -0.01674926 C37.85667793 -0.01654504 43.58286719 -0.02206615 49.30905914 -0.02680683 C60.52510182 -0.03510977 71.74113924 -0.03786153 82.95718473 -0.03841921 C92.07724898 -0.03889462 101.19731149 -0.04095063 110.31737518 -0.04411983 C131.97806297 -0.05149342 153.63874928 -0.05764474 175.29943848 -0.05712128 C175.99185994 -0.0571057 176.6842814 -0.05709012 177.39768534 -0.05707407 C180.9069307 -0.05699096 184.41617606 -0.05689192 187.92542142 -0.05678936 C188.62233165 -0.05676942 189.31924188 -0.05674947 190.0372706 -0.05672892 C191.44659378 -0.05668848 192.85591696 -0.05664669 194.26524014 -0.05660353 C216.17888062 -0.05599114 238.09250561 -0.06349125 260.00614166 -0.07717609 C284.6444067 -0.09255622 309.28266117 -0.10112846 333.92093134 -0.10021287 C346.95912282 -0.09988123 359.99729684 -0.10261378 373.03548431 -0.11339092 C384.13892692 -0.12251011 395.24234416 -0.12465958 406.3457889 -0.1178815 C412.00657011 -0.11462322 417.66730268 -0.11453452 423.32807922 -0.12323475 C428.51969247 -0.13113151 433.71121874 -0.12963604 438.90282995 -0.12095062 C440.77162665 -0.11942258 442.64042995 -0.12120524 444.50921887 -0.12681069 C459.33728566 -0.16830842 474.0629884 0.50515097 488.47489166 4.31613445 C489.30528961 4.53261639 490.13568756 4.74909832 490.99124908 4.97214031 C512.53442308 10.77716279 534.22545653 19.8995712 551.59989166 34.12863445 C552.43004791 34.77187664 553.26020416 35.41511883 554.11551666 36.0778532 C564.13042976 43.89624395 572.82630605 52.05581929 580.59989166 62.12863445 C581.35270416 63.07738445 582.10551666 64.02613445 582.88114166 65.00363445 C588.56271644 72.31963485 593.30109419 79.95043438 597.59989166 88.12863445 C598.1967276 89.25527508 598.79356354 90.3819157 599.40848541 91.54269695 C603.09306412 98.94467911 605.87576851 106.49051674 608.34989166 114.37863445 C608.63163239 115.25769451 608.91337311 116.13675457 609.20365143 117.04245281 C614.01292002 133.07191293 615.04396118 149.20616588 614.98084259 165.83648968 C614.98430814 167.85495112 614.98907868 169.87341066 614.99502432 171.89186633 C615.00744091 177.38381797 615.00140689 182.87561136 614.99206567 188.36756325 C614.98523678 194.31180055 614.99577538 200.25601192 615.00400543 206.20024395 C615.01653792 217.15384067 615.01550363 228.10738365 615.00727103 239.06098316 C614.99970066 249.18419225 614.99776524 259.3073831 615.00133896 269.43059444 C615.00168269 270.4409493 615.00168269 270.4409493 615.00203337 271.47171536 C615.00296751 274.20652158 615.00392272 276.94132779 615.00491266 279.67613398 C615.01407408 305.29151355 615.00579444 330.90686144 614.98962197 356.52223611 C614.97539015 379.23643014 614.97665812 401.95057368 614.99100494 424.66476727 C615.00710057 450.23265183 615.01342091 475.80050843 615.00416815 501.36839736 C615.00320612 504.09861254 615.00226759 506.82882773 615.00133896 509.55904293 C615.00098311 510.56728472 615.00098311 510.56728472 615.00062007 511.59589504 C614.9972204 521.70668339 615.00117466 531.81745142 615.00877762 541.92823696 C615.01722044 553.43647547 615.01485435 564.94465264 614.99893539 576.45288418 C614.99108954 582.31677369 614.98789768 588.18056121 614.99788284 594.04444981 C615.00690738 599.42589135 615.00177086 604.8071376 614.98595019 610.18856175 C614.98263487 612.12173092 614.98422185 614.05491704 614.99157755 615.98807506 C615.04974591 632.56389444 614.04093271 649.5732688 608.84989166 665.44113445 C608.59385162 666.25541912 608.33781158 667.06970379 608.07401276 667.90866375 C605.48145134 675.91372455 602.26396344 683.56118856 598.59989166 691.12863445 C598.30920807 691.74512859 598.01852448 692.36162273 597.71903229 692.99679852 C580.65523227 728.83831223 547.08890726 756.93281354 510.08133698 770.26486492 C489.74603151 777.34340789 469.27923512 779.59209194 447.83461761 779.50958538 C445.83434135 779.51305255 443.834067 779.51782414 441.83379656 779.52376711 C436.40144015 779.53616131 430.96924412 779.5301602 425.53688753 779.52080846 C419.65337306 779.51397031 413.76988458 779.5245226 407.88637543 779.53274822 C396.38620176 779.54603702 384.88608707 779.54322961 373.38591116 779.5345103 C364.03398523 779.5277153 354.68207631 779.52674604 345.3301487 779.53008175 C344.33017998 779.53042548 344.33017998 779.53042548 343.31000987 779.53077616 C340.60326978 779.53171031 337.89652971 779.53266553 335.18978964 779.53365545 C309.84673986 779.54281333 284.50372211 779.5345423 259.16067728 779.51836476 C236.68784292 779.50412842 214.21505957 779.50540542 191.74222565 779.51974773 C166.44132076 779.53584132 141.14044412 779.54216526 115.83953482 779.53291094 C113.13829617 779.53194892 110.43705752 779.53101039 107.73581886 779.53008175 C106.73828907 779.5297259 106.73828907 779.5297259 105.72060715 779.52936286 C95.7162123 779.52596284 85.71184157 779.5299371 75.70744896 779.53752041 C64.32293066 779.54596076 52.93847437 779.54360207 41.55396312 779.52767818 C35.75296649 779.51982975 29.95207299 779.51664502 24.15107727 779.52662563 C18.82836376 779.53564443 13.50584781 779.53052284 8.18315191 779.51469298 C6.27024862 779.51137534 4.35732822 779.51297006 2.44443619 779.52032034 C-41.05472065 779.67448478 -82.23131203 765.07641138 -113.91963959 734.71457195 C-122.77357376 725.48417129 -130.51914237 715.69038279 -137.31563568 704.85568523 C-138.29263618 703.29978665 -139.29229069 701.75816878 -140.29463959 700.2184782 C-150.22047474 684.28784888 -156.14129114 665.5187114 -159.58760834 647.19113445 C-159.7548642 646.30957684 -159.92212006 645.42801922 -160.09444427 644.51974773 C-162.55238575 630.67165478 -162.54811419 616.75602595 -162.54055023 602.74336529 C-162.54313893 600.80759229 -162.54615348 598.87181983 -162.54955363 596.93604809 C-162.55756736 591.6494795 -162.55941003 586.36292452 -162.5601511 581.07635057 C-162.56201148 575.36175482 -162.56956358 569.64716598 -162.57628632 563.93257427 C-162.58982901 551.45305341 -162.5958877 538.97353577 -162.60029697 526.49400878 C-162.60306569 518.69351144 -162.60730411 510.89301532 -162.61180115 503.09251881 C-162.62398737 481.4702396 -162.63432401 459.84796188 -162.63767624 438.2256794 C-162.63789787 436.82971698 -162.63811965 435.43375457 -162.63834159 434.03779215 C-162.63856223 432.63861285 -162.63878271 431.23943355 -162.63900304 429.84025425 C-162.63944557 427.03363033 -162.63989269 424.22700641 -162.64034271 421.4203825 C-162.6404521 420.72451278 -162.64056149 420.02864306 -162.6406742 419.31168639 C-162.64430355 396.75616919 -162.66022261 374.20068415 -162.68353308 351.64517927 C-162.70817541 327.75698284 -162.72184437 303.86880685 -162.72304416 279.98059708 C-162.72395891 266.97475869 -162.72966101 253.96896245 -162.74786377 240.96313572 C-162.76330988 229.88846724 -162.76835859 218.81385396 -162.76012567 207.73917674 C-162.75623543 202.09606871 -162.75706887 196.4530717 -162.77118301 190.80997753 C-162.78401955 185.63003907 -162.78263989 180.45029392 -162.7705923 175.27035535 C-162.76865208 173.41038371 -162.77163479 171.5503979 -162.78043666 169.69044607 C-162.9531554 130.67913115 -152.11018662 94.2717844 -128.40010834 63.12863445 C-127.62667084 62.10640789 -126.85323334 61.08418133 -126.05635834 60.0309782 C-122.10818435 54.94555844 -122.10818435 54.94555844 -120.40010834 53.12863445 C-119.74010834 53.12863445 -119.08010834 53.12863445 -118.40010834 53.12863445 C-118.1848349 52.58207195 -117.96956146 52.03550945 -117.74776459 51.47238445 C-104.82038853 28.98999131 -68.77404525 13.39908035 -45.23506927 6.85470867 C-30.43510988 3.06422648 -15.32207311 -0.04340457 0 0 Z M32.22098541 135.7184782 C29.50788651 139.75216982 29.07158722 144.29038611 28.26590729 149.01730633 C27.14633261 154.67436427 27.14633261 154.67436427 24.33036041 157.0153532 C23.42930573 157.38273602 22.52825104 157.75011883 21.59989166 158.12863445 C20.67692291 158.5050407 19.75395416 158.88144695 18.80301666 159.26925945 C17.82848541 159.6353532 16.85395416 160.00144695 15.84989166 160.37863445 C4.41854577 165.06913756 -4.08765094 173.06112624 -9.22486687 184.30533791 C-13.90064614 195.53801801 -13.83056501 206.61125634 -13.78829193 218.55221844 C-13.79236385 220.49346492 -13.79770919 222.43470908 -13.80422211 224.37594891 C-13.81782864 229.617738 -13.81262445 234.85934876 -13.80308485 240.10114074 C-13.7954525 245.60567636 -13.80254385 251.11019743 -13.80724335 256.6147337 C-13.81269098 265.85710655 -13.80553584 275.09940733 -13.79122162 284.34176922 C-13.7749019 295.00160644 -13.78018275 305.66127143 -13.79670084 316.32110447 C-13.8103498 325.49940788 -13.81221858 334.67765968 -13.80438483 343.85596997 C-13.79972641 349.32632139 -13.79903271 354.79659209 -13.80899429 360.26693821 C-13.81771126 365.41266273 -13.81155621 370.55816698 -13.79431152 375.70386791 C-13.79037162 377.58349334 -13.79143748 379.46313756 -13.79809952 381.34275532 C-13.85399431 398.72619549 -12.16650459 413.63368034 0.09207916 426.91769695 C13.9266344 439.11451668 29.68692926 440.28041534 47.27362823 440.26907635 C48.87922784 440.27166254 50.48482681 440.2746764 52.0904249 440.27807975 C56.49193854 440.28612312 60.89343585 440.28793783 65.29495597 440.28867722 C70.04632486 440.2905324 74.79768536 440.29808204 79.54904938 440.30481243 C89.93348084 440.31837702 100.31790843 440.32441746 110.70234728 440.32882309 C117.18981667 440.3315885 123.67728457 440.33582639 130.16475296 440.34032726 C148.1367108 440.35251714 166.10866746 440.36281723 184.08062935 440.36620235 C185.80497768 440.3665317 185.80497768 440.3665317 187.56416132 440.36686771 C188.71642981 440.36708598 189.86869829 440.36730426 191.055884 440.36752915 C193.39070296 440.36797262 195.72552192 440.36841918 198.06034088 440.36886883 C199.21848428 440.36909026 200.37662769 440.36931169 201.56986634 440.36953983 C220.33224409 440.37348712 239.09458297 440.39094033 257.85694571 440.41422835 C277.13301965 440.43796034 296.40907411 440.45040504 315.6851629 440.45157027 C326.50272449 440.45248596 337.32023544 440.45821148 348.13778305 440.47638988 C357.34960616 440.49181575 366.56136296 440.49689664 375.77319653 440.48865178 C380.46960446 440.48475419 385.16587898 440.48563127 389.86227036 440.49970913 C394.16931236 440.51250136 398.47612142 440.51120416 402.78316335 440.49911842 C404.33363636 440.49717061 405.88412618 440.50019705 407.43457563 440.50896278 C425.14834324 440.60269605 440.19326379 437.99992153 453.33817291 425.5153532 C459.4233226 419.09389127 462.54580735 412.68485615 464.59989166 404.12863445 C464.77319378 403.58919201 464.9464959 403.04974957 465.12504959 402.49396038 C465.82319129 399.0163143 465.74430823 395.55391858 465.74033356 392.02170086 C465.74330468 391.19778882 465.7462758 390.37387678 465.74933696 389.52499771 C465.7580187 386.76005387 465.75953179 383.99515335 465.76102448 381.23019695 C465.76565317 379.24910165 465.7706779 377.26800724 465.77606964 375.28691387 C465.78919423 369.9001535 465.7956392 364.5134056 465.8000803 359.12663174 C465.80301208 355.75889958 465.80711718 352.39117081 465.81158447 349.02344036 C465.8252621 338.48032967 465.83492638 327.93722676 465.83878636 317.39410782 C465.84326218 305.23626992 465.86078688 293.07854472 465.88978696 280.92074108 C465.91143689 271.51672671 465.92149248 262.11274396 465.92282748 252.70870495 C465.92387351 247.09572804 465.92973785 241.48285703 465.94764709 235.86990643 C465.96418408 230.58396362 465.966256 225.29820566 465.95750809 220.01224613 C465.95674061 218.07898429 465.96104196 216.14571229 465.97096634 214.21247578 C466.05160464 197.51619391 464.62019485 182.79868375 452.59989166 170.12863445 C451.93989166 170.12863445 451.27989166 170.12863445 450.59989166 170.12863445 C450.26989166 169.13863445 449.93989166 168.14863445 449.59989166 167.12863445 C447.58480808 166.39539649 447.58480808 166.39539649 445.59989166 166.12863445 C445.59989166 165.46863445 445.59989166 164.80863445 445.59989166 164.12863445 C444.60989166 164.12863445 443.61989166 164.12863445 442.59989166 164.12863445 C442.59989166 163.46863445 442.59989166 162.80863445 442.59989166 162.12863445 C440.90235842 161.31406722 439.19081515 160.52871217 437.47489166 159.75363445 C436.52356354 159.31277508 435.57223541 158.8719157 434.59207916 158.41769695 C422.92685495 154.1595177 409.87397554 154.84177366 397.65433502 154.92282391 C394.74742853 154.94138969 391.84083636 154.9433309 388.93387604 154.94308758 C387.08686805 154.94799295 385.23986222 154.95381694 383.39286041 154.9606657 C382.08843239 154.96233494 382.08843239 154.96233494 380.75765228 154.9640379 C376.86575406 154.61139786 376.86575406 154.61139786 373.59989166 156.12863445 C372.83676666 155.94300945 372.07364166 155.75738445 371.28739166 155.56613445 C367.04088255 154.87484227 365.07474689 156.8120643 361.59989166 159.12863445 C361.59989166 159.78863445 361.59989166 160.44863445 361.59989166 161.12863445 C360.59989166 162.12863445 359.59989166 163.12863445 358.59989166 164.12863445 C356.43498245 167.19558917 355.24327885 170.13297068 354.16239166 173.69113445 C352.97787562 177.47030467 351.63292477 179.50000576 348.59989166 182.12863445 C348.26989166 183.11863445 347.93989166 184.10863445 347.59989166 185.12863445 C346.93989166 185.78863445 346.27989166 186.44863445 345.59989166 187.12863445 C345.24576822 188.45659736 344.91467612 189.79080052 344.59989166 191.12863445 C343.20880343 194.55285164 341.19062552 196.5379006 338.59989166 199.12863445 C338.26989166 200.11863445 337.93989166 201.10863445 337.59989166 202.12863445 C336.93989166 202.45863445 336.27989166 202.78863445 335.59989166 203.12863445 C332.20877814 206.85455694 332.20877814 206.85455694 329.67020416 211.14425945 C328.09518308 214.06437154 325.69873992 215.53580481 323.06082916 217.4684782 C321.38845998 219.07234079 321.38845998 219.07234079 321.20536041 221.5544157 C321.67747668 224.63485751 322.60808124 225.94621586 324.53739166 228.37863445 C343.5496019 254.47231571 348.75563707 285.73336122 344.07621002 317.25143719 C340.55406073 338.38240088 331.25432905 356.77533005 317.59989166 373.12863445 C317.00563385 373.87500164 316.41137604 374.62136883 315.79911041 375.3903532 C300.64032118 393.80520695 278.74115966 403.20784976 256.59989166 410.12863445 C255.40106354 410.50375164 254.20223541 410.87886883 252.96707916 411.2653532 C247.24473846 412.73244983 241.48196035 412.86356269 235.59989166 413.12863445 C234.62536041 413.18277508 233.65082916 413.2369157 232.64676666 413.29269695 C203.38653995 414.15329186 176.81014092 405.36728773 153.70926666 387.59738445 C151.75473058 385.9381609 151.75473058 385.9381609 149.59989166 386.12863445 C149.16676666 385.20050945 149.16676666 385.20050945 148.72489166 384.25363445 C147.66269124 381.9953768 147.66269124 381.9953768 145.59989166 380.12863445 C144.60989166 380.12863445 143.61989166 380.12863445 142.59989166 380.12863445 C142.34465729 379.39644695 142.08942291 378.66425945 141.82645416 377.90988445 C140.53372884 374.9786092 139.05723992 373.05112725 136.97489166 370.62863445 C127.02657263 358.48159274 119.10895372 344.47762534 115.59989166 329.12863445 C115.44133698 328.49699383 115.28278229 327.8653532 115.11942291 327.21457195 C114.41838674 324.39988536 113.74696002 321.58132319 113.09989166 318.75363445 C112.84207916 317.65277508 112.58426666 316.5519157 112.31864166 315.41769695 C110.24674297 304.42239737 110.5857289 293.7426555 111.91239166 282.69113445 C112.04323151 281.47748211 112.17407135 280.26382977 112.30887604 279.01340008 C112.96707622 273.20406799 113.69372437 267.68198103 115.59989166 262.12863445 C115.81339264 261.50134441 116.02689362 260.87405437 116.24686432 260.22775555 C118.29842671 254.45065653 121.06084175 249.10897659 123.90262604 243.68918133 C126.03014162 239.62294475 126.03014162 239.62294475 126.59989166 235.12863445 C127.25989166 235.12863445 127.91989166 235.12863445 128.59989166 235.12863445 C129.49423324 233.72409802 130.36482358 232.30441576 131.22489166 230.87863445 C131.71215729 230.0897282 132.19942291 229.30082195 132.70145416 228.48800945 C133.85798791 226.16943575 133.85798791 226.16943575 132.93582916 223.8981657 C130.99317957 221.32500704 128.61660093 221.0713561 125.59989166 220.12863445 C124.93989166 219.13863445 124.27989166 218.14863445 123.59989166 217.12863445 C121.96021956 215.76224104 120.29661553 214.42350266 118.59989166 213.12863445 C117.60989166 213.62363445 117.60989166 213.62363445 116.59989166 214.12863445 C116.39364166 213.44800945 116.18739166 212.76738445 115.97489166 212.06613445 C113.45974112 206.6928583 109.51969293 202.78909626 104.91239166 199.12863445 C101.43576149 196.25563897 100.12597001 193.40165381 98.59989166 189.12863445 C96.73331659 184.98970711 94.9133663 182.22121078 91.59989166 179.12863445 C91.26989166 178.46863445 90.93989166 177.80863445 90.59989166 177.12863445 C91.25989166 176.79863445 91.91989166 176.46863445 92.59989166 176.12863445 C92.14614166 175.53050945 91.69239166 174.93238445 91.22489166 174.31613445 C89.96693253 172.62272793 88.77004442 170.88386359 87.59989166 169.12863445 C87.92989166 168.79863445 88.25989166 168.46863445 88.59989166 168.12863445 C88.26989166 167.13863445 87.93989166 166.14863445 87.59989166 165.12863445 C86.93989166 165.12863445 86.27989166 165.12863445 85.59989166 165.12863445 C85.92989166 164.13863445 86.25989166 163.14863445 86.59989166 162.12863445 C85.60989166 160.64363445 85.60989166 160.64363445 84.59989166 159.12863445 C85.91989166 158.79863445 87.23989166 158.46863445 88.59989166 158.12863445 C89.27247833 155.79700068 89.9383661 153.46343055 90.59989166 151.12863445 C90.88606354 150.16183758 90.88606354 150.16183758 91.17801666 149.17550945 C92.13496851 144.53252087 91.58211531 139.72474787 89.09989166 135.69113445 C81.31597803 130.82618843 71.25822151 131.82010126 62.40677643 131.86789227 C60.03924796 131.87862604 57.67247542 131.86794525 55.30496979 131.85519695 C53.77697335 131.85651848 52.24897737 131.85908074 50.72098541 131.86300945 C50.02492691 131.85896099 49.32886841 131.85491253 48.61171722 131.85074139 C42.87778753 131.90460817 37.07893366 132.47186911 32.22098541 135.7184782 Z M93.59989166 180.12863445 C94.59989166 182.12863445 94.59989166 182.12863445 94.59989166 182.12863445 Z M346.59989166 182.12863445 C347.59989166 185.12863445 347.59989166 185.12863445 347.59989166 185.12863445 Z M343.59989166 188.12863445 C344.59989166 190.12863445 344.59989166 190.12863445 344.59989166 190.12863445 Z M135.59989166 222.12863445 C136.59989166 224.12863445 136.59989166 224.12863445 136.59989166 224.12863445 Z " fill="#144990" transform="translate(285.40010833740234,121.87136554718018)"/>
<path d="M0 0 C1.02377243 -0.00335861 2.04754486 -0.00671722 3.1023407 -0.01017761 C6.47562892 -0.01964964 9.84886728 -0.02162906 13.22216797 -0.02270508 C15.57998678 -0.02592101 17.93780539 -0.02928534 20.29562378 -0.03279114 C25.236638 -0.03877358 30.17763476 -0.04063202 35.11865234 -0.04003906 C41.42285816 -0.03993766 47.72695079 -0.05357081 54.03112984 -0.07081127 C58.90244044 -0.08198017 63.77372414 -0.08395675 68.64504623 -0.08342934 C70.96765405 -0.08460282 73.29026271 -0.08898879 75.61285782 -0.0967617 C115.96894959 -0.21914289 115.96894959 -0.21914289 130.58935547 14.14526367 C136.28143259 20.63423159 140.00632755 28.49035242 143.7746582 36.19311523 C147.43556488 43.47436037 151.66802475 50.10504102 159.27685547 53.58276367 C167.68275296 56.2627338 176.84406912 55.97395542 185.58935547 56.14526367 C183.6445457 58.14812746 181.72911351 59.82994605 179.52685547 61.58276367 C175.73105816 64.89399111 174.63270138 67.77896203 173.27685547 72.52026367 C171.81103302 77.06654548 169.74307954 79.59732409 166.58935547 83.14526367 C164.14678386 87.39414601 164.14678386 87.39414601 163.58935547 92.14526367 C162.92935547 92.47526367 162.26935547 92.80526367 161.58935547 93.14526367 C161.27998047 93.76401367 160.97060547 94.38276367 160.65185547 95.02026367 C159.55330593 97.21736275 158.34811118 98.4629756 156.58935547 100.14526367 C156.25935547 100.80526367 155.92935547 101.46526367 155.58935547 102.14526367 C156.24935547 102.47526367 156.90935547 102.80526367 157.58935547 103.14526367 C156.92935547 103.14526367 156.26935547 103.14526367 155.58935547 103.14526367 C155.25935547 104.13526367 154.92935547 105.12526367 154.58935547 106.14526367 C154.58935547 105.15526367 154.58935547 104.16526367 154.58935547 103.14526367 C153.92935547 104.13526367 153.26935547 105.12526367 152.58935547 106.14526367 C151.88810547 106.80526367 151.18685547 107.46526367 150.46435547 108.14526367 C148.2473849 110.0531216 148.2473849 110.0531216 148.58935547 113.14526367 C147.92935547 113.14526367 147.26935547 113.14526367 146.58935547 113.14526367 C146.25935547 113.80526367 145.92935547 114.46526367 145.58935547 115.14526367 C144.07341797 116.28995117 144.07341797 116.28995117 142.52685547 117.45776367 C139.39077327 119.7627223 139.39077327 119.7627223 139.22216797 122.54760742 C139.66219193 125.66054287 140.58171249 126.94288386 142.52685547 129.39526367 C161.5390657 155.48894493 166.74510087 186.74999043 162.06567383 218.26806641 C158.54827799 239.37051196 149.26867925 257.83701448 135.58935547 274.14526367 C134.92162109 274.96510742 134.25388672 275.78495117 133.56591797 276.62963867 C117.78745306 295.30618897 96.3868304 305.01936575 73.58935547 312.14526367 C71.79111328 312.70793945 71.79111328 312.70793945 69.95654297 313.28198242 C64.23420226 314.74907905 58.47142416 314.88019191 52.58935547 315.14526367 C51.61482422 315.1994043 50.64029297 315.25354492 49.63623047 315.30932617 C30.78497116 315.86377498 10.46869742 312.94829794 -6.41064453 304.14526367 C-6.74064453 303.48526367 -7.07064453 302.82526367 -7.41064453 302.14526367 C-9.40805787 301.47088664 -11.40850212 300.80546834 -13.41064453 300.14526367 C-15.21693323 299.12213956 -16.98878875 298.03608436 -18.72314453 296.89526367 C-19.66931641 296.27393555 -20.61548828 295.65260742 -21.59033203 295.01245117 C-22.52103516 294.3962793 -23.45173828 293.78010742 -24.41064453 293.14526367 C-25.25884766 292.6115918 -26.10705078 292.07791992 -26.98095703 291.52807617 C-31.29217681 288.78198569 -34.32905506 286.29355719 -37.41064453 282.14526367 C-38.40064453 281.81526367 -39.39064453 281.48526367 -40.41064453 281.14526367 C-41.79892679 279.18300728 -43.1249985 277.1762467 -44.41064453 275.14526367 C-45.83749052 273.26214345 -47.27530068 271.38728789 -48.72314453 269.52026367 C-55.2291349 260.87061915 -60.1932208 252.47488723 -63.41064453 242.14526367 C-64.07064453 241.81526367 -64.73064453 241.48526367 -65.41064453 241.14526367 C-66.22705078 238.78198242 -66.22705078 238.78198242 -66.97314453 235.83276367 C-67.22193359 234.86725586 -67.47072266 233.90174805 -67.72705078 232.90698242 C-67.95263672 231.99561523 -68.17822266 231.08424805 -68.41064453 230.14526367 C-68.65621094 229.1765332 -68.65621094 229.1765332 -68.90673828 228.18823242 C-69.59771509 225.38683032 -70.26699089 222.5830301 -70.91064453 219.77026367 C-71.16845703 218.6694043 -71.42626953 217.56854492 -71.69189453 216.43432617 C-73.76379322 205.43902659 -73.4248073 194.75928472 -72.09814453 183.70776367 C-71.96730469 182.49411133 -71.83646484 181.28045898 -71.70166016 180.0300293 C-71.04006787 174.19075823 -70.25188117 168.72540997 -68.41064453 163.14526367 C-68.13349609 162.02635742 -67.85634766 160.90745117 -67.57080078 159.75463867 C-66.14448042 155.31719754 -64.09536349 151.46368852 -61.84814453 147.39526367 C-61.0323513 145.90155776 -60.21846681 144.40680737 -59.40673828 142.91088867 C-58.86811157 141.93297363 -58.86811157 141.93297363 -58.31860352 140.93530273 C-57.27801383 138.99258349 -57.27801383 138.99258349 -56.41064453 136.14526367 C-55.75064453 136.14526367 -55.09064453 136.14526367 -54.41064453 136.14526367 C-54.12189453 135.40276367 -53.83314453 134.66026367 -53.53564453 133.89526367 C-52.41064453 131.14526367 -52.41064453 131.14526367 -51.22314453 129.02026367 C-50.09338654 126.98477082 -50.09338654 126.98477082 -51.41064453 124.14526367 C-54.29383228 122.96190973 -54.29383228 122.96190973 -57.41064453 122.14526367 C-58.40064453 121.81526367 -59.39064453 121.48526367 -60.41064453 121.14526367 C-60.72001953 120.32026367 -61.02939453 119.49526367 -61.34814453 118.64526367 C-61.69876953 117.82026367 -62.04939453 116.99526367 -62.41064453 116.14526367 C-63.74141442 115.80183918 -65.07496432 115.46906494 -66.41064453 115.14526367 C-69.41064453 110.96669224 -69.41064453 110.96669224 -69.41064453 108.14526367 C-71.74278601 106.9389836 -73.90706592 105.97978988 -76.41064453 105.14526367 C-77.44854035 103.50192863 -78.44632377 101.832825 -79.41064453 100.14526367 C-79.90564453 99.69151367 -80.40064453 99.23776367 -80.91064453 98.77026367 C-83.22927406 96.25841501 -84.16009434 93.29882502 -85.41064453 90.14526367 C-85.80251953 89.17588867 -86.19439453 88.20651367 -86.59814453 87.20776367 C-86.86626953 86.52713867 -87.13439453 85.84651367 -87.41064453 85.14526367 C-88.07064453 85.14526367 -88.73064453 85.14526367 -89.41064453 85.14526367 C-91.94996733 81.72694452 -92.77426433 79.38749469 -92.41064453 75.14526367 C-93.07064453 75.14526367 -93.73064453 75.14526367 -94.41064453 75.14526367 C-94.74064453 74.15526367 -95.07064453 73.16526367 -95.41064453 72.14526367 C-95.90564453 71.27901367 -95.90564453 71.27901367 -96.41064453 70.39526367 C-97.75058304 67.38040203 -97.98839476 64.40261904 -98.41064453 61.14526367 C-98.74064453 60.48526367 -99.07064453 59.82526367 -99.41064453 59.14526367 C-98.42064453 59.14526367 -97.43064453 59.14526367 -96.41064453 59.14526367 C-96.08064453 58.15526367 -95.75064453 57.16526367 -95.41064453 56.14526367 C-94.41064453 53.14526367 -94.41064453 53.14526367 -93.34814453 51.14526367 C-92.19842759 49.06067164 -92.19842759 49.06067164 -92.41064453 46.14526367 C-91.75064453 46.14526367 -91.09064453 46.14526367 -90.41064453 46.14526367 C-90.08064453 49.11526367 -89.75064453 52.08526367 -89.41064453 55.14526367 C-79.64134521 55.63921701 -72.90942997 55.83018713 -65.35205078 49.39135742 C-59.03256576 43.09440176 -55.14476068 35.58899733 -50.86181641 27.84472656 C-43.35698182 14.44409202 -35.11659335 6.74962812 -20.43798828 1.94213867 C-13.63180843 0.15057649 -6.98547435 -0.0033151 0 0 Z M-89.41064453 81.14526367 C-88.41064453 83.14526367 -88.41064453 83.14526367 -88.41064453 83.14526367 Z M163.58935547 83.14526367 C164.58935547 86.14526367 164.58935547 86.14526367 164.58935547 86.14526367 Z M160.58935547 89.14526367 C161.58935547 91.14526367 161.58935547 91.14526367 161.58935547 91.14526367 Z M-47.41064453 123.14526367 C-46.41064453 125.14526367 -46.41064453 125.14526367 -46.41064453 125.14526367 Z " fill="#174C92" transform="translate(468.41064453125,220.854736328125)"/>
<path d="M0 0 C1.02377243 -0.00335861 2.04754486 -0.00671722 3.1023407 -0.01017761 C6.47562892 -0.01964964 9.84886728 -0.02162906 13.22216797 -0.02270508 C15.57998678 -0.02592101 17.93780539 -0.02928534 20.29562378 -0.03279114 C25.236638 -0.03877358 30.17763476 -0.04063202 35.11865234 -0.04003906 C41.42285816 -0.03993766 47.72695079 -0.05357081 54.03112984 -0.07081127 C58.90244044 -0.08198017 63.77372414 -0.08395675 68.64504623 -0.08342934 C70.96765405 -0.08460282 73.29026271 -0.08898879 75.61285782 -0.0967617 C115.96894959 -0.21914289 115.96894959 -0.21914289 130.58935547 14.14526367 C136.28143259 20.63423159 140.00632755 28.49035242 143.7746582 36.19311523 C147.43556488 43.47436037 151.66802475 50.10504102 159.27685547 53.58276367 C167.68275296 56.2627338 176.84406912 55.97395542 185.58935547 56.14526367 C183.6445457 58.14812746 181.72911351 59.82994605 179.52685547 61.58276367 C175.73105816 64.89399111 174.63270138 67.77896203 173.27685547 72.52026367 C171.81103302 77.06654548 169.74307954 79.59732409 166.58935547 83.14526367 C164.14678386 87.39414601 164.14678386 87.39414601 163.58935547 92.14526367 C162.92935547 92.47526367 162.26935547 92.80526367 161.58935547 93.14526367 C161.27998047 93.76401367 160.97060547 94.38276367 160.65185547 95.02026367 C159.55330593 97.21736275 158.34811118 98.4629756 156.58935547 100.14526367 C156.25935547 100.80526367 155.92935547 101.46526367 155.58935547 102.14526367 C156.24935547 102.47526367 156.90935547 102.80526367 157.58935547 103.14526367 C156.92935547 103.14526367 156.26935547 103.14526367 155.58935547 103.14526367 C155.25935547 104.13526367 154.92935547 105.12526367 154.58935547 106.14526367 C154.58935547 105.15526367 154.58935547 104.16526367 154.58935547 103.14526367 C153.92935547 104.13526367 153.26935547 105.12526367 152.58935547 106.14526367 C151.88810547 106.80526367 151.18685547 107.46526367 150.46435547 108.14526367 C148.2473849 110.0531216 148.2473849 110.0531216 148.58935547 113.14526367 C147.92935547 113.14526367 147.26935547 113.14526367 146.58935547 113.14526367 C146.25935547 113.80526367 145.92935547 114.46526367 145.58935547 115.14526367 C144.07341797 116.32088867 144.07341797 116.32088867 142.52685547 117.52026367 C141.55748047 118.38651367 140.58810547 119.25276367 139.58935547 120.14526367 C139.58935547 121.46526367 139.58935547 122.78526367 139.58935547 124.14526367 C137.58935547 123.14526367 137.58935547 123.14526367 135.65185547 120.64526367 C133.76639503 117.90952853 133.76639503 117.90952853 130.58935547 117.14526367 C128.89982186 115.50178208 127.2368944 113.83084102 125.58935547 112.14526367 C105.59138918 94.65684609 79.28638958 83.94064163 52.58935547 83.14526367 C51.40857422 83.10530273 50.22779297 83.0653418 49.01123047 83.02416992 C17.60188666 82.47482955 -13.271395 93.49416336 -36.26611328 115.03979492 C-38.27484626 117.01193895 -40.2538696 119.00882011 -42.22314453 121.02026367 C-44.73199382 123.58261923 -47.19570131 125.4890808 -50.41064453 127.14526367 C-50.74064453 126.15526367 -51.07064453 125.16526367 -51.41064453 124.14526367 C-54.29383228 122.96190973 -54.29383228 122.96190973 -57.41064453 122.14526367 C-58.40064453 121.81526367 -59.39064453 121.48526367 -60.41064453 121.14526367 C-60.72001953 120.32026367 -61.02939453 119.49526367 -61.34814453 118.64526367 C-61.69876953 117.82026367 -62.04939453 116.99526367 -62.41064453 116.14526367 C-63.74141442 115.80183918 -65.07496432 115.46906494 -66.41064453 115.14526367 C-69.41064453 110.96669224 -69.41064453 110.96669224 -69.41064453 108.14526367 C-71.74278601 106.9389836 -73.90706592 105.97978988 -76.41064453 105.14526367 C-77.44854035 103.50192863 -78.44632377 101.832825 -79.41064453 100.14526367 C-79.90564453 99.69151367 -80.40064453 99.23776367 -80.91064453 98.77026367 C-83.22927406 96.25841501 -84.16009434 93.29882502 -85.41064453 90.14526367 C-85.80251953 89.17588867 -86.19439453 88.20651367 -86.59814453 87.20776367 C-86.86626953 86.52713867 -87.13439453 85.84651367 -87.41064453 85.14526367 C-88.07064453 85.14526367 -88.73064453 85.14526367 -89.41064453 85.14526367 C-91.94996733 81.72694452 -92.77426433 79.38749469 -92.41064453 75.14526367 C-93.07064453 75.14526367 -93.73064453 75.14526367 -94.41064453 75.14526367 C-94.74064453 74.15526367 -95.07064453 73.16526367 -95.41064453 72.14526367 C-95.90564453 71.27901367 -95.90564453 71.27901367 -96.41064453 70.39526367 C-97.75058304 67.38040203 -97.98839476 64.40261904 -98.41064453 61.14526367 C-98.74064453 60.48526367 -99.07064453 59.82526367 -99.41064453 59.14526367 C-98.42064453 59.14526367 -97.43064453 59.14526367 -96.41064453 59.14526367 C-96.08064453 58.15526367 -95.75064453 57.16526367 -95.41064453 56.14526367 C-94.41064453 53.14526367 -94.41064453 53.14526367 -93.34814453 51.14526367 C-92.19842759 49.06067164 -92.19842759 49.06067164 -92.41064453 46.14526367 C-91.75064453 46.14526367 -91.09064453 46.14526367 -90.41064453 46.14526367 C-90.08064453 49.11526367 -89.75064453 52.08526367 -89.41064453 55.14526367 C-79.64134521 55.63921701 -72.90942997 55.83018713 -65.35205078 49.39135742 C-59.03256576 43.09440176 -55.14476068 35.58899733 -50.86181641 27.84472656 C-43.35698182 14.44409202 -35.11659335 6.74962812 -20.43798828 1.94213867 C-13.63180843 0.15057649 -6.98547435 -0.0033151 0 0 Z M-89.41064453 81.14526367 C-88.41064453 83.14526367 -88.41064453 83.14526367 -88.41064453 83.14526367 Z M163.58935547 83.14526367 C164.58935547 86.14526367 164.58935547 86.14526367 164.58935547 86.14526367 Z M160.58935547 89.14526367 C161.58935547 91.14526367 161.58935547 91.14526367 161.58935547 91.14526367 Z " fill="#FEFEFE" transform="translate(468.41064453125,220.854736328125)"/>
<path d="M0 0 C1.64262887 1.45956481 3.26986062 2.93680462 4.875 4.4375 C5.5040625 4.97632813 6.133125 5.51515625 6.78125 6.0703125 C19.31637148 17.40889966 27.73443305 36.38150308 29.09448242 53.14233398 C29.62307862 66.13117261 29.11568729 78.09084324 24.875 90.4375 C24.51277344 91.4996875 24.15054688 92.561875 23.77734375 93.65625 C15.81743251 114.59486398 0.0124224 128.7337199 -19.75 138.25 C-40.2507555 147.11277203 -64.15989281 146.76960722 -84.875 138.75 C-105.1921814 130.3474433 -120.32331419 114.66100319 -128.8684082 94.5847168 C-137.46757257 72.92326981 -136.04321037 48.47777241 -126.96484375 27.28271484 C-118.41163511 8.49051982 -101.91238284 -4.6529618 -83.05859375 -12.12109375 C-56.14179039 -22.19297843 -22.64197301 -18.15074717 0 0 Z " fill="#FEFEFE" transform="translate(566.125,355.5625)"/>
<path d="M0 0 C13.16382957 9.58249359 24.1922369 22.39588442 27.71704102 38.61254883 C27.98231346 39.82676262 27.98231346 39.82676262 28.25294495 41.06550598 C28.45258095 41.99020943 28.45258095 41.99020943 28.65625 42.93359375 C23.16217743 44.29258786 17.66322957 45.62866078 12.15844727 46.94360352 C10.28582678 47.39433835 8.41470546 47.85134897 6.54516602 48.31469727 C3.86061193 48.97889482 1.17150991 49.62048176 -1.51953125 50.2578125 C-2.35712479 50.47016037 -3.19471832 50.68250824 -4.05769348 50.90129089 C-6.4230957 51.44799805 -6.4230957 51.44799805 -10.34375 51.93359375 C-13.02702375 49.78597605 -14.35621488 47.24955829 -15.96875 44.24609375 C-20.49320214 36.61247376 -26.79123857 30.53337866 -35.27734375 27.55859375 C-46.97595042 25.17416437 -58.20003686 26.01748068 -68.47265625 32.21875 C-79.30277424 39.59638256 -84.96300442 51.09920591 -87.95336914 63.60180664 C-88.75855292 68.41125644 -88.68143224 73.25690678 -88.65625 78.12109375 C-88.65133545 79.23226562 -88.6464209 80.3434375 -88.64135742 81.48828125 C-88.42344428 96.73996644 -85.12466528 108.52811836 -74.5859375 119.921875 C-70.91398238 123.21639919 -66.90309442 125.13703088 -62.34375 126.93359375 C-61.250625 127.36671875 -60.1575 127.79984375 -59.03125 128.24609375 C-46.90566711 130.50679564 -35.95844519 128.66399727 -25.46875 122.12109375 C-19.33483008 117.71753822 -15.46117071 112.18434758 -11.34375 105.93359375 C-5.4550232 106.66374027 0.43312756 107.39814033 6.3203125 108.140625 C10.06343864 108.61228345 13.80721462 109.07211521 17.5546875 109.5078125 C18.90104971 109.67050639 20.24740459 109.83326091 21.59375 109.99609375 C22.75777344 110.13144531 23.92179688 110.26679687 25.12109375 110.40625 C25.95769531 110.58027344 26.79429687 110.75429688 27.65625 110.93359375 C28.65625 112.93359375 28.65625 112.93359375 27.90625 115.76953125 C20.45469517 136.86674587 7.86757768 152.34357596 -12.36914062 162.27026367 C-32.12568782 171.55162737 -57.83831601 172.20824883 -78.34375 164.93359375 C-79.52710938 164.52109375 -80.71046875 164.10859375 -81.9296875 163.68359375 C-101.14937149 156.21634346 -116.70689942 141.86347938 -125.23535156 122.95703125 C-136.17653569 97.00409844 -136.89246471 66.24064631 -126.53125 39.93359375 C-117.01237402 18.00702868 -102.34415881 1.65076996 -80.34375 -8.06640625 C-54.16661556 -17.71939844 -23.39082145 -15.62748847 0 0 Z " fill="#FDFEFE" transform="translate(393.34375,621.06640625)"/>
<path d="M0 0 C12.72174848 9.95615098 23.07020695 22.20841423 27.125 38.1875 C27.125 39.5075 27.125 40.8275 27.125 42.1875 C21.77060614 43.49788845 16.41379258 44.79767426 11.05444336 46.08764648 C9.2311451 46.52808885 7.40854563 46.97143441 5.58666992 47.41772461 C2.96971512 48.05824799 0.35043528 48.68833176 -2.26953125 49.31640625 C-3.08525101 49.51843155 -3.90097076 49.72045685 -4.7414093 49.92860413 C-10.53338488 51.30137171 -10.53338488 51.30137171 -13.875 50.1875 C-15.12109375 48.078125 -15.12109375 48.078125 -16.3125 45.4375 C-20.94027132 35.82702506 -27.68384161 30.38226356 -37.70703125 26.78515625 C-41.38464147 25.77132857 -44.95400116 25.69754886 -48.75 25.75 C-49.54083984 25.75974854 -50.33167969 25.76949707 -51.14648438 25.77954102 C-61.60590482 26.0964606 -68.07747922 29.51735461 -75.6171875 36.7734375 C-89.3341963 51.43972026 -89.72911872 69.90093437 -89.1015625 88.94726562 C-88.26085754 100.97079604 -82.80234364 111.70676413 -74.125 120 C-65.60824798 127.05907715 -55.60149662 128.75588773 -44.875 128.1875 C-33.58325825 126.75793654 -25.64790221 121.36038002 -17.875 113.1875 C-15.95133041 110.58387561 -14.42981198 108.03798863 -12.875 105.1875 C-3.57609974 106.31988757 5.71479012 107.51039937 15 108.75 C15.9688916 108.87673096 16.9377832 109.00346191 17.93603516 109.1340332 C19.29414307 109.31712036 19.29414307 109.31712036 20.6796875 109.50390625 C21.48905762 109.61162354 22.29842773 109.71934082 23.13232422 109.83032227 C25.125 110.1875 25.125 110.1875 27.125 111.1875 C24.69307542 128.21097203 13.84731608 143.52503183 0.33837891 153.6875 C-19.82800943 168.03833015 -44.49651934 171.2915645 -68.671875 167.5625 C-82.64397542 164.78440208 -95.98529541 157.16737445 -106.875 148.1875 C-107.82052734 147.41212891 -107.82052734 147.41212891 -108.78515625 146.62109375 C-124.60441947 132.24322126 -133.00061281 108.45858481 -133.99926758 87.59082031 C-134.85947923 57.96545055 -128.45761806 31.47057532 -107.875 9.1875 C-80.37825253 -19.12245997 -32.11461468 -22.37605029 0 0 Z " fill="#FDFDFE" transform="translate(569.875,621.8125)"/>
<path d="M0 0 C1.14871582 0.00491455 2.29743164 0.0098291 3.48095703 0.01489258 C24.34708963 0.30293561 42.47762478 7.38081219 57.83203125 21.734375 C67.14448534 31.66364754 73.02536753 43.16501878 76.25 56.3125 C70.89560614 57.62288845 65.53879258 58.92267426 60.17944336 60.21264648 C58.3561451 60.65308885 56.53354563 61.09643441 54.71166992 61.54272461 C52.09471512 62.18324799 49.47543528 62.81333176 46.85546875 63.44140625 C46.03974899 63.64343155 45.22402924 63.84545685 44.3835907 64.05360413 C38.59161512 65.42637171 38.59161512 65.42637171 35.25 64.3125 C34.14453125 62.30859375 34.14453125 62.30859375 33.0625 59.75 C28.546106 50.34084583 21.76511886 45.25037335 12.25 41.3125 C2.78846024 38.15865341 -9.39325197 39.41717432 -18.203125 43.7734375 C-29.56422134 50.63888529 -35.80858499 61.63689374 -39.28955078 74.27075195 C-43.19683915 90.15655039 -41.98228808 108.82606828 -34.3125 123.4375 C-33.48708296 124.74772524 -32.63528166 126.04195687 -31.75 127.3125 C-30.6671875 128.8903125 -30.6671875 128.8903125 -29.5625 130.5 C-21.84048269 138.22201731 -12.15384865 142.3828251 -1.3125 142.6875 C9.67034035 142.38100213 19.54084756 138.80840735 27.55078125 131.09765625 C30.99701249 127.31121206 33.59421058 123.7388157 36.25 119.3125 C49.12 120.9625 61.99 122.6125 75.25 124.3125 C72.74279299 141.86294904 62.20708898 157.08781792 48.1328125 167.65234375 C28.76687032 181.16574113 6.0942203 184.92168625 -17.18408203 182.0078125 C-21.54050815 181.21407834 -25.61847948 179.8813085 -29.75 178.3125 C-31.544375 177.65894531 -31.544375 177.65894531 -33.375 176.9921875 C-41.41318068 173.82195676 -48.05320364 169.74031744 -54.75 164.3125 C-55.80960938 163.49845703 -55.80960938 163.49845703 -56.890625 162.66796875 C-74.16264683 148.69395108 -82.2532602 126.75218847 -84.75 105.3125 C-85.02655325 100.8494464 -85.08501336 96.40833112 -85.0625 91.9375 C-85.05686035 90.75502686 -85.0512207 89.57255371 -85.04541016 88.35424805 C-84.71436938 64.50128526 -76.4351062 43.33301436 -60.75 25.3125 C-60.24339844 24.71050781 -59.73679687 24.10851562 -59.21484375 23.48828125 C-44.108029 6.91328502 -21.82698786 -0.11020505 0 0 Z " fill="#FDFEFE" transform="translate(695.75,607.6875)"/>
<path d="M0 0 C0.66 0 1.32 0 2 0 C2.33 2.97 2.66 5.94 3 9 C12.6450499 9.16863794 12.6450499 9.16863794 22.25 8.4375 C26 8 26 8 28 9 C28.495 9.99 28.495 9.99 29 11 C28.67 11.99 28.34 12.98 28 14 C28.66 14 29.32 14 30 14 C30.2475 14.928125 30.495 15.85625 30.75 16.8125 C31.67920333 20.03838195 31.67920333 20.03838195 33.9375 21.375 C36.70871565 23.55838203 37.24456944 25.86078699 38.2890625 29.16015625 C38.93745989 31.20726571 38.93745989 31.20726571 41 33 C41.625 35.625 41.625 35.625 42 38 C42.99 38.33 43.98 38.66 45 39 C49.8125 42.4375 49.8125 42.4375 51 46 C51.66 46 52.32 46 53 46 C53.66 47.32 54.32 48.64 55 50 C55.66 49.67 56.32 49.34 57 49 C57.45375 49.825 57.9075 50.65 58.375 51.5 C58.91125 52.325 59.4475 53.15 60 54 C60.66 54 61.32 54 62 54 C62 54.66 62 55.32 62 56 C63.485 56.495 63.485 56.495 65 57 C64.55505967 61.69659241 62.9366666 63.39439079 59.375 66.375 C56.17880496 69.11068762 53.10086887 71.83943685 50.1875 74.875 C47.67865071 77.43735556 45.21494322 79.34381713 42 81 C41.67 80.01 41.34 79.02 41 78 C38.11681225 76.81664605 38.11681225 76.81664605 35 76 C34.01 75.67 33.02 75.34 32 75 C31.690625 74.175 31.38125 73.35 31.0625 72.5 C30.711875 71.675 30.36125 70.85 30 70 C28.66923011 69.65657551 27.33568021 69.32380126 26 69 C23 64.82142857 23 64.82142857 23 62 C20.66785852 60.79371992 18.50357861 59.8345262 16 59 C14.96210419 57.35666496 13.96432076 55.68756133 13 54 C12.505 53.54625 12.01 53.0925 11.5 52.625 C9.18137047 50.11315134 8.25055019 47.15356135 7 44 C6.608125 43.030625 6.21625 42.06125 5.8125 41.0625 C5.4103125 40.0415625 5.4103125 40.0415625 5 39 C4.34 39 3.68 39 3 39 C0.4606772 35.58168085 -0.3636198 33.24223102 0 29 C-0.66 29 -1.32 29 -2 29 C-2.33 28.01 -2.66 27.02 -3 26 C-3.495 25.13375 -3.495 25.13375 -4 24.25 C-5.33993851 21.23513836 -5.57775023 18.25735537 -6 15 C-6.33 14.34 -6.66 13.68 -7 13 C-6.01 13 -5.02 13 -4 13 C-3.67 12.01 -3.34 11.02 -3 10 C-2 7 -2 7 -0.9375 5 C0.21221694 2.91540797 0.21221694 2.91540797 0 0 Z M3 35 C4 37 4 37 4 37 Z " fill="#F7FAFB" transform="translate(376,267)"/>
<path d="M0 0 C5.28393226 -0.34648736 8.95024525 -0.19358318 13.8125 1.9375 C22.0850608 5.29156119 31.19869625 4.82759444 40 5 C38.05519023 7.00286379 36.13975804 8.68468238 33.9375 10.4375 C30.14170269 13.74872744 29.04334591 16.63369836 27.6875 21.375 C26.22167755 25.92128181 24.15372407 28.45206042 21 32 C18.55742839 36.24888234 18.55742839 36.24888234 18 41 C17.01 41.495 17.01 41.495 16 42 C15.690625 42.61875 15.38125 43.2375 15.0625 43.875 C13.96395046 46.07209907 12.75875571 47.31771193 11 49 C10.505 49.99 10.505 49.99 10 51 C10.99 51.495 10.99 51.495 12 52 C11.34 52 10.68 52 10 52 C9.67 52.99 9.34 53.98 9 55 C9 54.01 9 53.02 9 52 C8.34 52.99 7.68 53.98 7 55 C6.29875 55.66 5.5975 56.32 4.875 57 C2.65802944 58.90785793 2.65802944 58.90785793 3 62 C2.34 62 1.68 62 1 62 C0.505 62.99 0.505 62.99 0 64 C-1.5159375 65.175625 -1.5159375 65.175625 -3.0625 66.375 C-4.031875 67.24125 -5.00125 68.1075 -6 69 C-6 70.32 -6 71.64 -6 73 C-8 72 -8 72 -9.9375 69.5 C-11.82296043 66.76426486 -11.82296043 66.76426486 -15 66 C-16.12375902 64.87624098 -17.24276346 63.74728335 -18.3359375 62.59375 C-21.26709719 59.78644213 -24.56026673 57.41239176 -27.79296875 54.96484375 C-29.97780895 53.01975592 -31.01785538 51.72696019 -32 49 C-32 48.01 -32 47.02 -32 46 C-31.01 45.34 -30.02 44.68 -29 44 C-28.01 42.9790625 -28.01 42.9790625 -27 41.9375 C-25 40 -25 40 -22 39 C-20.77030122 35.48809191 -20.77030122 35.48809191 -20 32 C-19.34 32 -18.68 32 -18 32 C-17.7525 31.4225 -17.505 30.845 -17.25 30.25 C-15.83316683 27.6997003 -14.12372463 25.98214299 -12 24 C-12.33 23.34 -12.66 22.68 -13 22 C-12.34 21.67 -11.68 21.34 -11 21 C-10.67 20.34 -10.34 19.68 -10 19 C-8 17 -8 17 -6 16 C-6 14.68 -6 13.36 -6 12 C-4.5 10.25 -4.5 10.25 -3 9 C-3.33 8.34 -3.66 7.68 -4 7 C-3.34 6.01 -2.68 5.02 -2 4 C-1.31822584 2.67432801 -0.64808564 1.34246312 0 0 Z M18 32 C19 35 19 35 19 35 Z M15 38 C16 40 16 40 16 40 Z " fill="#F6F9FB" transform="translate(614,272)"/>
<path d="M0 0 C3.29419064 4.94128597 3.14416075 9.27439642 3.12863445 15.0955658 C3.13038749 15.92220075 3.13214053 16.7488357 3.13394669 17.60052019 C3.13862275 20.38856318 3.13613705 23.17655439 3.13371277 25.96459961 C3.13557995 27.97652733 3.13788028 29.98845469 3.14057809 32.00038147 C3.1467143 37.54355042 3.14656035 43.08670433 3.14538372 48.6298759 C3.14518016 54.60282675 3.15069422 60.57577272 3.15544128 66.54872131 C3.16375901 78.25774062 3.1665096 89.96675616 3.16705366 101.67577797 C3.16751302 111.19360205 3.16957039 120.7114245 3.17275429 130.22924805 C3.17365183 132.96797371 3.17454164 135.70669937 3.17542917 138.44542503 C3.17565021 139.12627368 3.17587126 139.80712233 3.17609901 140.50860276 C3.18225512 159.66567765 3.1861994 178.82275196 3.18575573 197.97982788 C3.18574015 198.70237986 3.18572457 199.42493184 3.18570852 200.16937934 C3.18562541 203.83163308 3.18552637 207.49388682 3.18542381 211.15614057 C3.1853939 212.24715622 3.1853939 212.24715622 3.18536337 213.36021259 C3.18532294 214.83108148 3.18528114 216.30195037 3.18523798 217.77281925 C3.18462554 240.64559029 3.19212535 263.51834649 3.20581055 286.39111328 C3.22117806 312.08624525 3.22977631 337.78136747 3.22884732 363.47650433 C3.22877269 366.21774483 3.22872399 368.95898533 3.22869301 371.70022583 C3.22868135 372.37519134 3.2286697 373.05015685 3.22865769 373.74557585 C3.22862694 384.5997233 3.23500846 395.45385786 3.24362527 406.30800148 C3.25211098 417.22302847 3.25291332 428.13803573 3.24651595 439.05306417 C3.24324958 444.96432341 3.24319828 450.87553603 3.2518692 456.78679085 C3.25973015 462.20162518 3.25830682 467.61637588 3.24958507 473.03120816 C3.24804917 474.98687499 3.24986964 476.94254805 3.25544515 478.89820755 C3.3236206 504.51456911 3.3236206 504.51456911 -1 511 C-0.89381146 509.6280102 -0.89381146 509.6280102 -0.7854777 508.22830343 C0.01489228 496.90196706 0.13836935 485.63494092 0.12025452 474.28381348 C0.12069142 472.22822828 0.12156851 470.17264313 0.12284368 468.11705828 C0.1250653 462.50942164 0.12109952 456.90180432 0.11606562 451.29417014 C0.1117276 445.2316817 0.11320992 439.16919427 0.1139679 433.10670471 C0.11449101 422.61657976 0.11140157 412.12646032 0.10573006 401.63633728 C0.09980099 390.64151479 0.09596169 379.6466948 0.09487724 368.65187073 C0.0948085 367.96672891 0.09473976 367.28158708 0.09466894 366.57568339 C0.09433058 363.0958045 0.09402921 359.6159256 0.09374207 356.13604671 C0.09164497 331.52608023 0.08491688 306.916117 0.07543945 282.30615234 C0.06624633 258.40673846 0.05916698 234.50732546 0.05493164 210.60791016 C0.05480011 209.8704569 0.05466859 209.13300364 0.05453308 208.37320331 C0.05321449 200.96699428 0.05193869 193.56078523 0.05069422 186.15457618 C0.04815841 171.06899312 0.04533716 155.98341012 0.04234314 140.89782715 C0.0421372 139.85754658 0.0421372 139.85754658 0.04192711 138.79625025 C0.03273566 92.53083212 0.01687066 46.2654159 0 0 Z " fill="#07296D" transform="translate(897,260)"/>
<path d="M0 0 C3.17429604 0.43285855 6.32648385 0.86673621 9.47012115 1.48874509 C18.05907897 3.1338369 26.50279749 3.29086864 35.21099854 3.2784729 C36.82590536 3.28348453 38.44080969 3.28936284 40.05571055 3.29602563 C44.46382362 3.31173481 48.87187279 3.31525128 53.28001046 3.31667423 C58.04468849 3.32038424 62.80933212 3.33554763 67.57398987 3.34928894 C75.81931443 3.37151547 84.06462668 3.38655641 92.30997467 3.39665604 C104.23122138 3.41126871 116.15242517 3.43681277 128.07364663 3.46498732 C147.41708767 3.51040834 166.7605349 3.54704251 186.10400391 3.578125 C204.88949674 3.60832977 223.67497443 3.64268889 242.46044922 3.68261719 C244.19863212 3.68630951 244.19863212 3.68630951 245.97192982 3.69007643 C251.78548607 3.7024514 257.59904214 3.71490786 263.41259813 3.72740483 C311.60837761 3.83090238 359.80417598 3.92012878 408 4 C408 4.66 408 5.32 408 6 C358.31686311 6.09160726 308.63373477 6.162065 258.95052999 6.20426132 C253.08152181 6.20926399 247.21251379 6.21444129 241.34350586 6.21972656 C240.17511953 6.2207758 239.00673319 6.22182505 237.80294121 6.22290608 C218.89845891 6.24029901 199.99402539 6.27183058 181.089572 6.30861118 C161.68379966 6.34605154 142.27805283 6.3682424 122.87224585 6.37635398 C110.90321517 6.38183532 98.9343224 6.39913156 86.96533418 6.43166587 C78.75152839 6.45285194 70.53779362 6.45919078 62.3239625 6.45400551 C57.58896167 6.45145011 52.8542014 6.45529564 48.11924362 6.4768219 C43.77538912 6.49642486 39.43193476 6.49718183 35.08806104 6.48359558 C33.52521227 6.48191882 31.96233753 6.48687602 30.39953911 6.49953273 C20.17869089 6.57742558 10.64331146 5.6379602 1 2 C0.67 1.34 0.34 0.68 0 0 Z " fill="#0F2F6E" transform="translate(298,558)"/>
<path d="M0 0 C0.66 0 1.32 0 2 0 C1.97679687 0.94101562 1.95359375 1.88203125 1.9296875 2.8515625 C1.91164063 4.09679687 1.89359375 5.34203125 1.875 6.625 C1.85179687 7.85476563 1.82859375 9.08453125 1.8046875 10.3515625 C1.99778573 13.95863743 2.71809132 16.6454267 4 20 C4.144375 20.680625 4.28875 21.36125 4.4375 22.0625 C4.95489206 24.15668272 4.95489206 24.15668272 6.4375 26.375 C8.11015756 29.18506471 8.96847026 31.90541078 10 35 C10.99414593 36.67016516 11.9935725 38.33720673 13 40 C13.2165625 41.051875 13.2165625 41.051875 13.4375 42.125 C14.23263188 44.77543962 15.74857609 45.45616646 18 47 C21.37064313 49.96208033 23.21073386 52.88468788 25 57 C25 57.66 25 58.32 25 59 C25.51949219 59.23074219 26.03898437 59.46148437 26.57421875 59.69921875 C31.25347157 61.88748301 34.45440949 64.15894362 38 68 C41.35226064 70.90529255 44.91998277 72.35230074 49 74 C47.54744301 77.82946843 45.57104439 79.12050295 42 81 C41.67 80.01 41.34 79.02 41 78 C38.11681225 76.81664605 38.11681225 76.81664605 35 76 C34.01 75.67 33.02 75.34 32 75 C31.690625 74.175 31.38125 73.35 31.0625 72.5 C30.711875 71.675 30.36125 70.85 30 70 C28.66923011 69.65657551 27.33568021 69.32380126 26 69 C23 64.82142857 23 64.82142857 23 62 C20.66785852 60.79371992 18.50357861 59.8345262 16 59 C14.96210419 57.35666496 13.96432076 55.68756133 13 54 C12.505 53.54625 12.01 53.0925 11.5 52.625 C9.18137047 50.11315134 8.25055019 47.15356135 7 44 C6.608125 43.030625 6.21625 42.06125 5.8125 41.0625 C5.4103125 40.0415625 5.4103125 40.0415625 5 39 C4.34 39 3.68 39 3 39 C0.4606772 35.58168085 -0.3636198 33.24223102 0 29 C-0.66 29 -1.32 29 -2 29 C-2.33 28.01 -2.66 27.02 -3 26 C-3.495 25.13375 -3.495 25.13375 -4 24.25 C-5.33993851 21.23513836 -5.57775023 18.25735537 -6 15 C-6.33 14.34 -6.66 13.68 -7 13 C-6.01 13 -5.02 13 -4 13 C-3.67 12.01 -3.34 11.02 -3 10 C-2 7 -2 7 -0.9375 5 C0.21221694 2.91540797 0.21221694 2.91540797 0 0 Z M3 35 C4 37 4 37 4 37 Z " fill="#D5E1EC" transform="translate(376,267)"/>
<path d="M0 0 C-1.94480977 2.00286379 -3.86024196 3.68468238 -6.0625 5.4375 C-9.85829731 8.74872744 -10.95665409 11.63369836 -12.3125 16.375 C-13.77832245 20.92128181 -15.84627593 23.45206042 -19 27 C-21.44257161 31.24888234 -21.44257161 31.24888234 -22 36 C-22.99 36.495 -22.99 36.495 -24 37 C-24.309375 37.61875 -24.61875 38.2375 -24.9375 38.875 C-26.03604954 41.07209907 -27.24124429 42.31771193 -29 44 C-29.33 44.66 -29.66 45.32 -30 46 C-29.34 46.33 -28.68 46.66 -28 47 C-28.66 47 -29.32 47 -30 47 C-30.33 47.99 -30.66 48.98 -31 50 C-31 49.01 -31 48.02 -31 47 C-31.66 47.99 -32.32 48.98 -33 50 C-33.70125 50.66 -34.4025 51.32 -35.125 52 C-37.34197056 53.90785793 -37.34197056 53.90785793 -37 57 C-37.66 57 -38.32 57 -39 57 C-39.33 57.66 -39.66 58.32 -40 59 C-41.010625 59.78375 -42.02125 60.5675 -43.0625 61.375 C-44.031875 62.24125 -45.00125 63.1075 -46 64 C-46 65.32 -46 66.64 -46 68 C-48 67 -48 67 -49.9375 64.5625 C-51.92062468 61.83597963 -51.92062468 61.83597963 -55 60 C-53.14375 59.4121875 -53.14375 59.4121875 -51.25 58.8125 C-44.75367878 56.37208303 -41.80550931 50.82343149 -38.9375 44.75 C-38 43 -38 43 -36 42 C-35.67 41.01 -35.34 40.02 -35 39 C-34.67 38.01 -34.34 37.02 -34 36 C-33.01 35.505 -33.01 35.505 -32 35 C-31.34786708 32.97536745 -31.34786708 32.97536745 -31 31 C-30.34 31 -29.68 31 -29 31 C-29 29.68 -29 28.36 -29 27 C-28.34 27 -27.68 27 -27 27 C-26.67 26.01 -26.34 25.02 -26 24 C-25.34 23.34 -24.68 22.68 -24 22 C-23.690625 21.195625 -23.38125 20.39125 -23.0625 19.5625 C-21.99463814 16.98706845 -21.06487121 15.80676231 -19 14 C-16.7437106 11.7437106 -16.21552368 10.0160402 -15.5625 6.9375 C-15 5 -15 5 -13 3 C-13.495 2.01 -13.495 2.01 -14 1 C-9.32798795 -0.20568053 -4.78503708 -0.09382426 0 0 Z M-22 27 C-21 30 -21 30 -21 30 Z M-25 33 C-24 35 -24 35 -24 35 Z " fill="#D4E0EC" transform="translate(654,277)"/>
<path d="M0 0 C0.28875 0.61875 0.5775 1.2375 0.875 1.875 C1.93720042 4.13325765 1.93720042 4.13325765 4 6 C4 6.99 4 7.98 4 9 C4.66 9.33 5.32 9.66 6 10 C6.66666667 12 7.33333333 14 8 16 C8.98731742 17.34275169 9.98594743 18.67732273 11 20 C11.14953125 20.62132812 11.2990625 21.24265625 11.453125 21.8828125 C13.0191365 27.94551417 17.87198332 33.29298134 21.66796875 38.140625 C23 40 23 40 24.0390625 42.08203125 C26.46663886 46.92731578 31.09090457 49.82201977 35.43359375 52.8046875 C37.36474269 54.27833232 38.58254959 56.04256848 40 58 C42.08334635 59.2516467 42.08334635 59.2516467 44 60 C44 60.66 44 61.32 44 62 C46.97 62.495 46.97 62.495 50 63 C49.625 64.9375 49.625 64.9375 49 67 C47 68 47 68 45.16015625 67.51171875 C44.46792969 67.23972656 43.77570313 66.96773438 43.0625 66.6875 C42.37285156 66.42324219 41.68320312 66.15898437 40.97265625 65.88671875 C39 65 39 65 36 63 C36 62.34 36 61.68 36 61 C35.01 60.67 34.02 60.34 33 60 C32.236875 59.21625 31.47375 58.4325 30.6875 57.625 C28.15386612 54.8501979 28.15386612 54.8501979 24.8125 53.5625 C22 52 22 52 20.8125 49 C20.544375 48.01 20.27625 47.02 20 46 C18.52109931 44.26973898 18.52109931 44.26973898 17 43 C16.67 42.34 16.34 41.68 16 41 C15.34 40.67 14.68 40.34 14 40 C10.22461054 36.91104499 9.61997876 34.75317048 9 30 C8.34 29.34 7.68 28.68 7 28 C7 27.01 7 26.02 7 25 C6.01 24.67 5.02 24.34 4 24 C4.66 24 5.32 24 6 24 C5.65066406 23.5153125 5.30132812 23.030625 4.94140625 22.53125 C1.54418396 17.52684322 0.40109414 14.01641212 0 8 C-0.20625 7.2575 -0.4125 6.515 -0.625 5.75 C-1.09171747 3.57198513 -0.67414198 2.0973306 0 0 Z " fill="#EFF4F8" transform="translate(378,274)"/>
<path d="M0 0 C2.1875 0.3125 2.1875 0.3125 4 1 C4 2.66666667 4 4.33333333 4 6 C3.01 6 2.02 6 1 6 C1.268125 6.721875 1.53625 7.44375 1.8125 8.1875 C2 11 2 11 -0.3125 13.8125 C-3 16 -3 16 -5 16 C-5.268125 17.093125 -5.53625 18.18625 -5.8125 19.3125 C-7.36505032 24.13357731 -7.36505032 24.13357731 -10 26 C-10.66 26 -11.32 26 -12 26 C-11.95875 26.94875 -11.9175 27.8975 -11.875 28.875 C-12 32 -12 32 -14 34 C-14.495 34.433125 -14.99 34.86625 -15.5 35.3125 C-17.12736178 36.93792938 -17.12736178 36.93792938 -17.8125 39.1875 C-19.25125724 42.59508295 -21.27600609 45.14845769 -23.5625 48.03515625 C-24.96554547 49.95290591 -26.0030813 51.84799761 -27 54 C-27.66 54 -28.32 54 -29 54 C-29.99 56.475 -29.99 56.475 -31 59 C-31.66 58.67 -32.32 58.34 -33 58 C-33.78375 58.226875 -34.5675 58.45375 -35.375 58.6875 C-36.674375 58.8421875 -36.674375 58.8421875 -38 59 C-40.3125 57.0625 -40.3125 57.0625 -42 55 C-41.01 55 -40.02 55 -39 55 C-38.34 54.34 -37.68 53.68 -37 53 C-36.34 53 -35.68 53 -35 53 C-33.05025932 50.22285834 -33.05025932 50.22285834 -32 47.9375 C-31 46 -31 46 -29 44 C-28.67 43.34 -28.34 42.68 -28 42 C-27.34 42 -26.68 42 -26 42 C-25.67 41.34 -25.34 40.68 -25 40 C-24.34 39.01 -23.68 38.02 -23 37 C-22.71125 36.278125 -22.4225 35.55625 -22.125 34.8125 C-20.63736113 31.09340283 -18.82205549 27.56450662 -17 24 C-16.34 24 -15.68 24 -15 24 C-14.9071875 23.1646875 -14.9071875 23.1646875 -14.8125 22.3125 C-14 20 -14 20 -11.8125 18 C-8.17016509 14.64271739 -6.47403068 10.17343948 -4.4296875 5.7421875 C-3.14853672 3.2848983 -2.18879958 1.67240718 0 0 Z " fill="#EDF3F7" transform="translate(637,278)"/>
<path d="M0 0 C9.27618969 -0.06994813 18.55228661 -0.12303632 27.82868385 -0.15543652 C32.13751257 -0.1709981 36.44615897 -0.19205927 40.75488281 -0.22631836 C44.92408376 -0.25925526 49.09311094 -0.2769242 53.2624321 -0.28463173 C54.84180812 -0.29011438 56.42117617 -0.30081769 58.00047684 -0.31719017 C79.92961676 -0.53519162 79.92961676 -0.53519162 89 4 C89 4.66 89 5.32 89 6 C88.21496094 5.86722656 87.42992187 5.73445313 86.62109375 5.59765625 C85.04521484 5.33275391 85.04521484 5.33275391 83.4375 5.0625 C82.40496094 4.88847656 81.37242187 4.71445312 80.30859375 4.53515625 C79.21675781 4.35855469 78.12492188 4.18195313 77 4 C75.94893066 3.82525146 74.89786133 3.65050293 73.81494141 3.47045898 C69.71378448 2.96470387 65.77583947 2.89078608 61.65234375 2.9375 C60.48995934 2.94317993 60.48995934 2.94317993 59.30409241 2.94897461 C56.84850244 2.96109724 54.39303529 2.97972029 51.9375 3 C48.69661745 3.02670795 45.45579558 3.04664368 42.21484375 3.0625 C41.11305031 3.07494751 41.11305031 3.07494751 39.98899841 3.08764648 C35.87995226 3.10710054 32.03028653 2.80407877 28 2 C27.67 2.99 27.34 3.98 27 5 C27 4.34 27 3.68 27 3 C26.25314941 2.98018066 25.50629883 2.96036133 24.73681641 2.93994141 C21.36584395 2.84491789 17.99551071 2.73514741 14.625 2.625 C13.449375 2.5940625 12.27375 2.563125 11.0625 2.53125 C9.94101562 2.49257813 8.81953125 2.45390625 7.6640625 2.4140625 C6.10872803 2.36693115 6.10872803 2.36693115 4.52197266 2.31884766 C2 2 2 2 0 0 Z " fill="#203971" transform="translate(632,275)"/>
<path d="M0 0 C3.45379351 1.39951971 4.7629218 2.74910699 6.47265625 6.03515625 C7.10977539 7.25041992 7.10977539 7.25041992 7.75976562 8.49023438 C8.40461914 9.76350586 8.40461914 9.76350586 9.0625 11.0625 C9.49626953 11.88427734 9.93003906 12.70605469 10.37695312 13.55273438 C17.50532733 27.34293775 17.50532733 27.34293775 16.57055664 32.25805664 C16.38227295 32.83289795 16.19398926 33.40773926 16 34 C13.93745987 30.90618981 13.07016637 28.34041068 11.9375 24.8125 C9.36541309 17.39063476 5.76572048 10.86007118 1.79296875 4.10546875 C0 1 0 1 0 0 Z " fill="#2F477C" transform="translate(610,352)"/>
<path d="M0 0 C4.18972705 0.61186608 7.31774181 3.00580574 10.75 5.3125 C15.70175372 8.57606796 20.60069852 11.51632132 26 14 C24.02 14.99 24.02 14.99 22 16 C22 15.34 22 14.68 22 14 C21.12472656 13.73832031 20.24945313 13.47664062 19.34765625 13.20703125 C11.9686158 10.54644374 5.17840778 5.89267092 0 0 Z " fill="#2D477E" transform="translate(439,509)"/>
<path d="M0 0 C9 3 18 6 27 9 C27 9.33 27 9.66 27 10 C20.59076425 9.76693688 15.02192315 8.20091748 9 6.125 C7.85059937 5.73997314 7.85059937 5.73997314 6.67797852 5.34716797 C4.74901491 4.65913275 2.86854814 3.83834414 1 3 C0.67 2.01 0.34 1.02 0 0 Z " fill="#183775" transform="translate(217,885)"/>
<path d="M0 0 C0.33 0 0.66 0 1 0 C1.58890469 22.11664296 1.58890469 22.11664296 -3 29 C-2.54379857 21.35134631 -2.08063144 13.7028724 -1.5 6.0625 C-1.39171875 4.62583984 -1.39171875 4.62583984 -1.28125 3.16015625 C-1 1 -1 1 0 0 Z " fill="#163370" transform="translate(899,742)"/>
<path d="M0 0 C0.33 0 0.66 0 1 0 C1.33 5.28 1.66 10.56 2 16 C2.33 16 2.66 16 3 16 C3.19600577 18.22843488 3.38146569 20.45779893 3.5625 22.6875 C3.66691406 23.92886719 3.77132813 25.17023438 3.87890625 26.44921875 C3.98493841 29.55835533 3.77228525 32.00810972 3 35 C1.34178157 32.05951549 0.69445479 29.73181365 0.4375 26.375 C0.12109383 22.43720841 0.12109383 22.43720841 -0.31640625 18.51171875 C-1.11146983 12.2015306 -0.77893261 6.30336234 0 0 Z " fill="#6F85AA" transform="translate(396,408)"/>
<path d="M0 0 C0.99 0.495 0.99 0.495 2 1 C3.52830801 9.55852485 3.08951981 18.33647219 3 27 C2.34 27 1.68 27 1 27 C0.30962574 17.97582223 -0.15178302 9.05638678 0 0 Z " fill="#4F618D" transform="translate(629,399)"/>
<path d="M0 0 C1.1405136 4.56205439 0.71502296 5.36628863 -1.25 9.4375 C-1.68828125 10.36433594 -2.1265625 11.29117187 -2.578125 12.24609375 C-3.95032715 14.90379296 -5.42970727 17.45520207 -7 20 C-7.66 19.01 -8.32 18.02 -9 17 C-6.03 11.39 -3.06 5.78 0 0 Z " fill="#3D5385" transform="translate(410,362)"/>
<path d="M0 0 C0.33 0 0.66 0 1 0 C1.33 7.92 1.66 15.84 2 24 C-1.03610976 19.44583535 -1.15527445 15.79802792 -1.125 10.5 C-1.12886719 9.82324219 -1.13273437 9.14648438 -1.13671875 8.44921875 C-1.13062416 5.35926233 -0.9844023 2.95320689 0 0 Z " fill="#163370" transform="translate(125,740)"/>
<path d="M0 0 C0.66 0 1.32 0 2 0 C2.23268915 6.28260706 1.40454548 11.88019467 0 18 C-0.66 18 -1.32 18 -2 18 C-2.33 19.32 -2.66 20.64 -3 22 C-2.51172287 14.52165033 -1.66594452 7.31074682 0 0 Z " fill="#24447F" transform="translate(127,248)"/>
<path d="M0 0 C1.65 0.33 3.3 0.66 5 1 C5.45402536 6.26993722 3.95207309 9.84008491 1.5 14.375 C1.16613281 15.01566406 0.83226562 15.65632812 0.48828125 16.31640625 C-0.33026451 17.88333671 -1.16364513 19.44250241 -2 21 C-2.66 20.67 -3.32 20.34 -4 20 C-3.57847656 18.96359375 -3.15695312 17.9271875 -2.72265625 16.859375 C-2.16913284 15.48963909 -1.61575506 14.11984432 -1.0625 12.75 C-0.78470703 12.06808594 -0.50691406 11.38617187 -0.22070312 10.68359375 C1.06975756 7.48076362 2.21800044 4.36162466 3 1 C2.01 0.67 1.02 0.34 0 0 Z " fill="#0C2261" transform="translate(768,731)"/>
<path d="M0 0 C0.66 0 1.32 0 2 0 C0.11380178 7.03645577 -1.86927695 14.03359344 -4 21 C-4.33 21 -4.66 21 -5 21 C-5.27908468 15.57878002 -4.42721053 11.62142765 -2.5 6.5625 C-2.26152344 5.92634766 -2.02304688 5.29019531 -1.77734375 4.63476562 C-1.19509076 3.08597268 -0.59898931 1.54239747 0 0 Z " fill="#193977" transform="translate(135,223)"/>
<path d="M0 0 C3.53191322 3.43153914 6.7137505 6.97375062 9.8125 10.8125 C10.60269531 11.78832031 11.39289063 12.76414062 12.20703125 13.76953125 C13.09455078 14.87361328 13.09455078 14.87361328 14 16 C11 16 11 16 8.80859375 13.91796875 C8.02613281 13.01691406 7.24367187 12.11585938 6.4375 11.1875 C5.65246094 10.29417969 4.86742187 9.40085937 4.05859375 8.48046875 C0 3.59013283 0 3.59013283 0 0 Z " fill="#173572" transform="translate(155,834)"/>
<path d="M0 0 C0.66 0 1.32 0 2 0 C0.33333333 6.66666667 -1.33333333 13.33333333 -3 20 C-3.33 20 -3.66 20 -4 20 C-4.25729264 12.92445235 -4.01984912 6.02977369 0 0 Z " fill="#345188" transform="translate(316,257)"/>
<path d="M0 0 C0.66 0 1.32 0 2 0 C2.26554687 0.74765625 2.53109375 1.4953125 2.8046875 2.265625 C3.15789062 3.25046875 3.51109375 4.2353125 3.875 5.25 C4.22304688 6.22453125 4.57109375 7.1990625 4.9296875 8.203125 C5.90701997 10.94862456 5.90701997 10.94862456 7.1953125 13.171875 C8 15 8 15 7 18 C-0.37991179 6.6484563 -0.37991179 6.6484563 0 0 Z " fill="#1D3974" transform="translate(272,526)"/>
<path d="M0 0 C0 3.69942045 -0.85819127 4.40155392 -3.25 7.125 C-3.85328125 7.82882812 -4.4565625 8.53265625 -5.078125 9.2578125 C-7.10469267 11.09490433 -8.32969429 11.6100881 -11 12 C-8.47295673 6.78797325 -4.38226641 3.6119868 0 0 Z " fill="#1C3E7D" transform="translate(744,542)"/>
<path d="M0 0 C3.63758605 1.21252868 4.12831024 2.60772531 5.80078125 5.91796875 C6.11402344 6.56378906 6.42726563 7.20960938 6.75 7.875 C7.07871094 8.51308594 7.40742187 9.15117187 7.74609375 9.80859375 C10.12667411 14.61997768 10.12667411 14.61997768 9 18 C6.83304114 14.74956172 5.10944819 11.36504819 3.375 7.875 C3.05015625 7.22917969 2.7253125 6.58335937 2.390625 5.91796875 C0 1.12667411 0 1.12667411 0 0 Z " fill="#173B7B" transform="translate(877,203)"/>
<path d="M0 0 C0.99 0 1.98 0 3 0 C5.2265625 2.265625 5.2265625 2.265625 7.625 5.25 C8.42164063 6.22453125 9.21828125 7.1990625 10.0390625 8.203125 C11.75018577 10.64369126 12.59976206 12.1017253 13 15 C8.42265886 10.56570077 4.07873675 5.89853248 0 1 C0 0.67 0 0.34 0 0 Z " fill="#193B7A" transform="translate(854,173)"/>
<path d="M0 0 C0 0.66 0 1.32 0 2 C-4.52499377 5.66700794 -9.37706588 7.71141093 -15 9 C-12.64722731 6.27573689 -10.37503669 5.1858237 -7 4 C-7.33 3.34 -7.66 2.68 -8 2 C-5.09399739 0.74335022 -3.20395416 0 0 0 Z " fill="#255696" transform="translate(230,133)"/>
<path d="M0 0 C0 4.35987708 -2.19551067 6.78398234 -5 10 C-7.6875 11.875 -7.6875 11.875 -10 13 C-10.99 13.495 -10.99 13.495 -12 14 C-10.58226538 10.45566346 -9.32387762 9.66193881 -6 8 C-5.29848848 6.6846659 -4.63474075 5.34882408 -4 4 C-2.70529025 2.62913085 -1.37849103 1.28659163 0 0 Z " fill="#112865" transform="translate(584,761)"/>
<path d="M0 0 C0.66 0 1.32 0 2 0 C2 4.29 2 8.58 2 13 C0.68 12.67 -0.64 12.34 -2 12 C-1.49835478 8.27349266 -0.9780083 4.63260227 0 1 C0 0.67 0 0.34 0 0 Z " fill="#CCDBE8" transform="translate(376,267)"/>
<path d="M0 0 C3.43752007 1.5277867 6.18953688 3.50181056 9 6 C9 6.66 9 7.32 9 8 C10.32 8.66 11.64 9.32 13 10 C12.34 10.66 11.68 11.32 11 12 C9.29115995 10.37660195 7.62553283 8.70680947 6 7 C6 6.34 6 5.68 6 5 C5.38125 4.690625 4.7625 4.38125 4.125 4.0625 C2.75 3.375 1.375 2.6875 0 2 C0 1.34 0 0.68 0 0 Z " fill="#153270" transform="translate(590,330)"/>
<path d="M0 0 C3.90829085 0.5647301 5.89920223 2.42131971 8.75 5.0625 C9.54921875 5.79597656 10.3484375 6.52945313 11.171875 7.28515625 C11.77515625 7.85105469 12.3784375 8.41695312 13 9 C12.67 9.66 12.34 10.32 12 11 C9.99702215 9.35767739 7.99756092 7.71138756 6 6.0625 C5.42765625 5.59392578 4.8553125 5.12535156 4.265625 4.64257812 C2.82502935 3.45065672 1.41025129 2.22767412 0 1 C0 0.67 0 0.34 0 0 Z " fill="#173979" transform="translate(837,158)"/>
<path d="M0 0 C0.99 0.33 1.98 0.66 3 1 C0.69 3.64 -1.62 6.28 -4 9 C-4.99 8.34 -5.98 7.68 -7 7 C-6.01 6.67 -5.02 6.34 -4 6 C-2.90833725 4.06669397 -2.90833725 4.06669397 -2 2 C-1.34 1.34 -0.68 0.68 0 0 Z " fill="#294C88" transform="translate(171,169)"/>
<path d="M0 0 C1.79398267 0.95399078 3.58511655 1.91334026 5.375 2.875 C6.37273437 3.40867187 7.37046875 3.94234375 8.3984375 4.4921875 C11 6 11 6 13 8 C7.64147506 7.60791281 3.85831875 5.6642613 0 2 C0 1.34 0 0.68 0 0 Z " fill="#143574" transform="translate(194,872)"/>
<path d="M0 0 C0.33 0.99 0.66 1.98 1 3 C-0.65234375 5.48046875 -0.65234375 5.48046875 -2.9375 8.1875 C-3.68902344 9.08855469 -4.44054687 9.98960937 -5.21484375 10.91796875 C-5.80394531 11.60503906 -6.39304687 12.29210937 -7 13 C-7.33 12.34 -7.66 11.68 -8 11 C-5.36 7.37 -2.72 3.74 0 0 Z " fill="#122F6D" transform="translate(872,829)"/>
<path d="M0 0 C1.75070517 0.11470137 3.50057536 0.24219028 5.25 0.375 C6.22453125 0.44460938 7.1990625 0.51421875 8.203125 0.5859375 C10.89633189 0.98465249 12.66963279 1.63507063 15 3 C13.06318839 3.08107583 11.1254066 3.13922475 9.1875 3.1875 C8.10855469 3.22230469 7.02960938 3.25710938 5.91796875 3.29296875 C3 3 3 3 1.11328125 1.48828125 C0.56220703 0.75158203 0.56220703 0.75158203 0 0 Z " fill="#132F6E" transform="translate(252,896)"/>
<path d="M0 0 C3.63 0.33 7.26 0.66 11 1 C11 1.33 11 1.66 11 2 C4.61773055 2.82351864 -1.56744599 3.12086218 -8 3 C-8 2.67 -8 2.34 -8 2 C-5.36 2 -2.72 2 0 2 C0 1.34 0 0.68 0 0 Z " fill="#365A91" transform="translate(752,898)"/>
<path d="M0 0 C0.9435441 2.53899138 1.16906025 3.60909275 0.07421875 6.140625 C-0.61220703 7.18476563 -0.61220703 7.18476563 -1.3125 8.25 C-1.76238281 8.95640625 -2.21226562 9.6628125 -2.67578125 10.390625 C-3.11277344 10.92171875 -3.54976562 11.4528125 -4 12 C-4.66 12 -5.32 12 -6 12 C-4.43358249 7.69235185 -2.31663844 3.93828536 0 0 Z " fill="#2E4277" transform="translate(616,473)"/>
<path d="M0 0 C0.66 0.33 1.32 0.66 2 1 C0.73299277 1.9841125 -0.5387619 2.96211497 -1.8125 3.9375 C-2.87404297 4.75541016 -2.87404297 4.75541016 -3.95703125 5.58984375 C-6 7 -6 7 -9 8 C-7.83917375 4.51752126 -7.09067524 4.11180756 -4.0625 2.25 C-3.35222656 1.80140625 -2.64195312 1.3528125 -1.91015625 0.890625 C-1.27980469 0.59671875 -0.64945313 0.3028125 0 0 Z " fill="#274077" transform="translate(582,512)"/>
<path d="M0 0 C3.34354588 0.77618029 4.51559292 1.12771395 6.5 3.8125 C2.12065881 3.29291715 -2.18803391 2.75574258 -6.5 1.8125 C-3.5 -0.1875 -3.5 -0.1875 0 0 Z " fill="#2A4A83" transform="translate(247.5,894.1875)"/>
<path d="M0 0 C0.33 0 0.66 0 1 0 C0 8.57142857 0 8.57142857 -1 12 C-1.66 12 -2.32 12 -3 12 C-2.14285714 3.42857143 -2.14285714 3.42857143 0 0 Z " fill="#122B68" transform="translate(751,523)"/>
<path d="M0 0 C0.33 0 0.66 0 1 0 C0.67 3.96 0.34 7.92 0 12 C-2 10 -2 10 -2.265625 8.125 C-2.26046875 7.42375 -2.2553125 6.7225 -2.25 6 C-2.25515625 5.29875 -2.2603125 4.5975 -2.265625 3.875 C-2 2 -2 2 0 0 Z " fill="#30457A" transform="translate(400,389)"/>
<path d="M0 0 C-4.22949995 2.41685712 -7.12335991 3.34833144 -12 3 C-4.82142857 -1.78571429 -4.82142857 -1.78571429 0 0 Z " fill="#133474" transform="translate(802,889)"/>
<path d="M0 0 C-1.49097658 3.7952131 -3.75700849 5.61042731 -7 8 C-7 5 -7 5 -4.625 2.3125 C-2 0 -2 0 0 0 Z " fill="#2F4D86" transform="translate(857,850)"/>
<path d="M0 0 C1.875 0.3125 1.875 0.3125 4 1 C6 4 6 4 5.625 6.1875 C5.41875 6.785625 5.2125 7.38375 5 8 C3.09276551 6.09276551 1.52626646 4.22002394 0 2 C0 1.34 0 0.68 0 0 Z " fill="#EAEFF3" transform="translate(393,276)"/>
<path d="M0 0 C3.73487777 0.4979837 5.81237635 0.87491756 9 3 C9 3.66 9 4.32 9 5 C5.22454612 3.90931332 2.52956528 3.0916909 0 0 Z " fill="#344D82" transform="translate(205,880)"/>
<path d="M0 0 C3.73584906 1.47169811 3.73584906 1.47169811 5 4 C4.34 4 3.68 4 3 4 C2.67 4.66 2.34 5.32 2 6 C0.68 4.35 -0.64 2.7 -2 1 C-1.34 0.67 -0.68 0.34 0 0 Z " fill="#385F98" transform="translate(169,850)"/>
<path d="M0 0 C1 3 1 3 0.22265625 5.04296875 C-0.16019531 5.75066406 -0.54304687 6.45835937 -0.9375 7.1875 C-1.31777344 7.90292969 -1.69804688 8.61835937 -2.08984375 9.35546875 C-2.54037109 10.16951172 -2.54037109 10.16951172 -3 11 C-3.66 10.01 -4.32 9.02 -5 8 C-3.35 5.36 -1.7 2.72 0 0 Z " fill="#163777" transform="translate(883,810)"/>
<path d="M0 0 C0 0.66 0 1.32 0 2 C-7.42857143 2.28571429 -7.42857143 2.28571429 -11 0 C-6.94952424 -1.35015859 -4.2079832 -0.62084998 0 0 Z " fill="#2D518A" transform="translate(498,532)"/>
<path d="M0 0 C0.66 0.33 1.32 0.66 2 1 C-0.31 3.31 -2.62 5.62 -5 8 C-5.99 7.67 -6.98 7.34 -8 7 C-5.36 4.69 -2.72 2.38 0 0 Z " fill="#0E2867" transform="translate(848,857)"/>
<path d="M0 0 C3.53600465 1.91135386 5.78972846 3.62642766 8 7 C4.21388773 6.45912682 2.44599233 4.88277668 0 2 C0 1.34 0 0.68 0 0 Z " fill="#153574" transform="translate(176,858)"/>
<path d="M0 0 C3.16115776 1.36983503 3.9927092 1.9890638 6 5 C5.01 5.495 5.01 5.495 4 6 C3.01 5.67 2.02 5.34 1 5 C0.67 3.35 0.34 1.7 0 0 Z " fill="#3F5A8D" transform="translate(427,497)"/>
<path d="M0 0 C0 0.66 0 1.32 0 2 C-3.96 3.98 -3.96 3.98 -8 6 C-8 5.01 -8 4.02 -8 3 C-5.11165997 0.89229241 -3.61537605 0 0 0 Z " fill="#294781" transform="translate(822,878)"/>
<path d="M0 0 C0.66 0 1.32 0 2 0 C1.34 3.3 0.68 6.6 0 10 C-0.66 9.01 -1.32 8.02 -2 7 C-1.125 3.3125 -1.125 3.3125 0 0 Z " fill="#38558A" transform="translate(274,306)"/>
<path d="M0 0 C2.875 -0.1875 2.875 -0.1875 6 0 C6.66 0.99 7.32 1.98 8 3 C5.36 2.67 2.72 2.34 0 2 C0 1.34 0 0.68 0 0 Z " fill="#3B588D" transform="translate(360,252)"/>
<path d="M0 0 C2.25245881 2.68841859 3.88213958 4.64641875 5 8 C4.01 8 3.02 8 2 8 C0.23537317 4.91190305 0 3.76687864 0 0 Z " fill="#384C7E" transform="translate(409,470)"/>
<path d="M0 0 C0.66 0 1.32 0 2 0 C2.33 1.32 2.66 2.64 3 4 C2.01 4.495 2.01 4.495 1 5 C1 4.01 1 3.02 1 2 C0.34 1.67 -0.32 1.34 -1 1 C-0.67 0.67 -0.34 0.34 0 0 Z " fill="#D3E0EC" transform="translate(415,345)"/>
<path d="M0 0 C3 1 3 1 3 1 Z " fill="#D3E0EC" transform="translate(655,279)"/>
<path d="M0 0 C2 1 2 1 2 1 Z " fill="#D3E0EC" transform="translate(410,354)"/>
<path d="" fill="#D3E0EC" transform="translate(0,0)"/>
<path d="" fill="#D3E0EC" transform="translate(0,0)"/>
<path d="" fill="#D3E0EC" transform="translate(0,0)"/>
<path d="" fill="#D3E0EC" transform="translate(0,0)"/>
<path d="M0 0 C2 1 2 1 2 1 Z " fill="#D3E0EC" transform="translate(391,327)"/>
<path d="" fill="#D3E0EC" transform="translate(0,0)"/>
<path d="" fill="#D3E0EC" transform="translate(0,0)"/>
<path d="" fill="#D3E0EC" transform="translate(0,0)"/>
<path d="" fill="#D3E0EC" transform="translate(0,0)"/>
<path d="" fill="#D3E0EC" transform="translate(0,0)"/>
<path d="M0 0 C2 1 2 1 2 1 Z " fill="#D3E0EC" transform="translate(372,296)"/>
<path d="M0 0 C2 1 2 1 2 1 Z " fill="#D3E0EC" transform="translate(644,288)"/>
<path d="M0 0 C2 1 2 1 2 1 Z " fill="#D3E0EC" transform="translate(645,285)"/>
<path d="" fill="#D3E0EC" transform="translate(0,0)"/>
<path d="" fill="#D3E0EC" transform="translate(0,0)"/>
<path d="" fill="#D3E0EC" transform="translate(0,0)"/>
<path d="" fill="#D3E0EC" transform="translate(0,0)"/>
<path d="" fill="#D3E0EC" transform="translate(0,0)"/>
<path d="" fill="#D3E0EC" transform="translate(0,0)"/>
<path d="" fill="#D3E0EC" transform="translate(0,0)"/>
<path d="" fill="#D3E0EC" transform="translate(0,0)"/>
<path d="" fill="#D3E0EC" transform="translate(0,0)"/>
<path d="" fill="#D3E0EC" transform="translate(0,0)"/>
<path d="" fill="#D3E0EC" transform="translate(0,0)"/>
<path d="" fill="#D3E0EC" transform="translate(0,0)"/>
<path d="" fill="#D3E0EC" transform="translate(0,0)"/>
<path d="" fill="#D3E0EC" transform="translate(0,0)"/>
<path d="" fill="#D3E0EC" transform="translate(0,0)"/>
<path d="" fill="#D3E0EC" transform="translate(0,0)"/>
<path d="" fill="#D3E0EC" transform="translate(0,0)"/>
<path d="" fill="#D3E0EC" transform="translate(0,0)"/>
<path d="" fill="#D3E0EC" transform="translate(0,0)"/>
<path d="" fill="#D3E0EC" transform="translate(0,0)"/>
<path d="" fill="#D3E0EC" transform="translate(0,0)"/>
<path d="" fill="#D3E0EC" transform="translate(0,0)"/>
<path d="" fill="#D3E0EC" transform="translate(0,0)"/>
<path d="" fill="#D3E0EC" transform="translate(0,0)"/>
<path d="" fill="#D3E0EC" transform="translate(0,0)"/>
<path d="" fill="#D3E0EC" transform="translate(0,0)"/>
<path d="" fill="#D3E0EC" transform="translate(0,0)"/>
<path d="" fill="#D3E0EC" transform="translate(0,0)"/>
<path d="" fill="#D3E0EC" transform="translate(0,0)"/>
<path d="" fill="#D3E0EC" transform="translate(0,0)"/>
<path d="" fill="#D3E0EC" transform="translate(0,0)"/>
<path d="" fill="#D3E0EC" transform="translate(0,0)"/>
<path d="" fill="#D3E0EC" transform="translate(0,0)"/>
<path d="" fill="#D3E0EC" transform="translate(0,0)"/>
<path d="" fill="#D3E0EC" transform="translate(0,0)"/>
<path d="" fill="#D3E0EC" transform="translate(0,0)"/>
<path d="" fill="#D3E0EC" transform="translate(0,0)"/>
<path d="" fill="#D3E0EC" transform="translate(0,0)"/>
<path d="" fill="#D3E0EC" transform="translate(0,0)"/>
<path d="" fill="#D3E0EC" transform="translate(0,0)"/>
<path d="" fill="#D3E0EC" transform="translate(0,0)"/>
<path d="" fill="#D3E0EC" transform="translate(0,0)"/>
<path d="" fill="#D3E0EC" transform="translate(0,0)"/>
<path d="" fill="#D3E0EC" transform="translate(0,0)"/>
<path d="" fill="#D3E0EC" transform="translate(0,0)"/>
<path d="" fill="#D3E0EC" transform="translate(0,0)"/>
<path d="" fill="#D3E0EC" transform="translate(0,0)"/>
<path d="" fill="#D3E0EC" transform="translate(0,0)"/>
<path d="" fill="#D3E0EC" transform="translate(0,0)"/>
<path d="" fill="#D3E0EC" transform="translate(0,0)"/>
<path d="" fill="#D3E0EC" transform="translate(0,0)"/>
<path d="" fill="#D3E0EC" transform="translate(0,0)"/>
<path d="" fill="#D3E0EC" transform="translate(0,0)"/>
<path d="" fill="#D3E0EC" transform="translate(0,0)"/>
<path d="" fill="#D3E0EC" transform="translate(0,0)"/>
<path d="" fill="#D3E0EC" transform="translate(0,0)"/>
<path d="" fill="#D3E0EC" transform="translate(0,0)"/>
<path d="" fill="#D3E0EC" transform="translate(0,0)"/>
<path d="" fill="#D3E0EC" transform="translate(0,0)"/>
<path d="" fill="#D3E0EC" transform="translate(0,0)"/>
<path d="" fill="#D3E0EC" transform="translate(0,0)"/>
<path d="" fill="#D3E0EC" transform="translate(0,0)"/>
<path d="" fill="#D3E0EC" transform="translate(0,0)"/>
<path d="" fill="#D3E0EC" transform="translate(0,0)"/>
<path d="" fill="#D3E0EC" transform="translate(0,0)"/>
<path d="" fill="#D3E0EC" transform="translate(0,0)"/>
<path d="" fill="#D3E0EC" transform="translate(0,0)"/>
<path d="" fill="#D3E0EC" transform="translate(0,0)"/>
<path d="" fill="#D3E0EC" transform="translate(0,0)"/>
<path d="" fill="#D3E0EC" transform="translate(0,0)"/>
<path d="" fill="#D3E0EC" transform="translate(0,0)"/>
<path d="" fill="#D3E0EC" transform="translate(0,0)"/>
<path d="" fill="#D3E0EC" transform="translate(0,0)"/>
<path d="" fill="#D3E0EC" transform="translate(0,0)"/>
<path d="" fill="#D3E0EC" transform="translate(0,0)"/>
<path d="" fill="#D3E0EC" transform="translate(0,0)"/>
<path d="" fill="#D3E0EC" transform="translate(0,0)"/>
<path d="" fill="#D3E0EC" transform="translate(0,0)"/>
<path d="" fill="#D3E0EC" transform="translate(0,0)"/>
<path d="" fill="#D3E0EC" transform="translate(0,0)"/>
<path d="" fill="#D3E0EC" transform="translate(0,0)"/>
<path d="" fill="#D3E0EC" transform="translate(0,0)"/>
<path d="" fill="#D3E0EC" transform="translate(0,0)"/>
<path d="" fill="#D3E0EC" transform="translate(0,0)"/>
<path d="" fill="#D3E0EC" transform="translate(0,0)"/>
<path d="" fill="#D3E0EC" transform="translate(0,0)"/>
<path d="" fill="#D3E0EC" transform="translate(0,0)"/>
<path d="" fill="#D3E0EC" transform="translate(0,0)"/>
<path d="" fill="#D3E0EC" transform="translate(0,0)"/>
<path d="" fill="#D3E0EC" transform="translate(0,0)"/>
<path d="" fill="#D3E0EC" transform="translate(0,0)"/>
<path d="" fill="#D3E0EC" transform="translate(0,0)"/>
<path d="" fill="#D3E0EC" transform="translate(0,0)"/>
<path d="" fill="#D3E0EC" transform="translate(0,0)"/>
<path d="" fill="#D3E0EC" transform="translate(0,0)"/>
<path d="" fill="#D3E0EC" transform="translate(0,0)"/>
<path d="" fill="#D3E0EC" transform="translate(0,0)"/>
<path d="" fill="#D3E0EC" transform="translate(0,0)"/>
<path d="" fill="#D3E0EC" transform="translate(0,0)"/>
<path d="" fill="#D3E0EC" transform="translate(0,0)"/>
<path d="" fill="#D3E0EC" transform="translate(0,0)"/>
<path d="" fill="#D3E0EC" transform="translate(0,0)"/>
<path d="" fill="#D3E0EC" transform="translate(0,0)"/>
<path d="" fill="#D3E0EC" transform="translate(0,0)"/>
<path d="" fill="#D3E0EC" transform="translate(0,0)"/>
<path d="" fill="#D3E0EC" transform="translate(0,0)"/>
<path d="" fill="#D3E0EC" transform="translate(0,0)"/>
<path d="" fill="#D3E0EC" transform="translate(0,0)"/>
<path d="" fill="#D3E0EC" transform="translate(0,0)"/>
<path d="" fill="#D3E0EC" transform="translate(0,0)"/>
<path d="" fill="#D3E0EC" transform="translate(0,0)"/>
<path d="" fill="#D3E0EC" transform="translate(0,0)"/>
<path d="" fill="#D3E0EC" transform="translate(0,0)"/>
<path d="" fill="#D3E0EC" transform="translate(0,0)"/>
<path d="" fill="#D3E0EC" transform="translate(0,0)"/>
<path d="" fill="#D3E0EC" transform="translate(0,0)"/>
<path d="" fill="#D3E0EC" transform="translate(0,0)"/>
<path d="" fill="#D3E0EC" transform="translate(0,0)"/>
<path d="" fill="#D3E0EC" transform="translate(0,0)"/>
<path d="" fill="#D3E0EC" transform="translate(0,0)"/>
<path d="" fill="#D3E0EC" transform="translate(0,0)"/>
<path d="" fill="#D3E0EC" transform="translate(0,0)"/>
<path d="" fill="#D3E0EC" transform="translate(0,0)"/>
<path d="" fill="#D3E0EC" transform="translate(0,0)"/>
<path d="" fill="#D3E0EC" transform="translate(0,0)"/>
<path d="" fill="#D3E0EC" transform="translate(0,0)"/>
<path d="" fill="#D3E0EC" transform="translate(0,0)"/>
<path d="" fill="#D3E0EC" transform="translate(0,0)"/>
<path d="" fill="#D3E0EC" transform="translate(0,0)"/>
<path d="" fill="#D3E0EC" transform="translate(0,0)"/>
<path d="" fill="#D3E0EC" transform="translate(0,0)"/>
<path d="" fill="#D3E0EC" transform="translate(0,0)"/>
<path d="" fill="#D3E0EC" transform="translate(0,0)"/>
<path d="" fill="#D3E0EC" transform="translate(0,0)"/>
<path d="" fill="#D3E0EC" transform="translate(0,0)"/>
<path d="" fill="#D3E0EC" transform="translate(0,0)"/>
<path d="" fill="#D3E0EC" transform="translate(0,0)"/>
<path d="" fill="#D3E0EC" transform="translate(0,0)"/>
<path d="" fill="#D3E0EC" transform="translate(0,0)"/>
<path d="" fill="#D3E0EC" transform="translate(0,0)"/>
<path d="" fill="#D3E0EC" transform="translate(0,0)"/>
<path d="" fill="#D3E0EC" transform="translate(0,0)"/>
<path d="" fill="#D3E0EC" transform="translate(0,0)"/>
<path d="" fill="#D3E0EC" transform="translate(0,0)"/>
<path d="" fill="#D3E0EC" transform="translate(0,0)"/>
<path d="" fill="#D3E0EC" transform="translate(0,0)"/>
<path d="" fill="#D3E0EC" transform="translate(0,0)"/>
<path d="" fill="#D3E0EC" transform="translate(0,0)"/>
<path d="" fill="#D3E0EC" transform="translate(0,0)"/>
<path d="" fill="#D3E0EC" transform="translate(0,0)"/>
<path d="" fill="#D3E0EC" transform="translate(0,0)"/>
<path d="" fill="#D3E0EC" transform="translate(0,0)"/>
<path d="" fill="#D3E0EC" transform="translate(0,0)"/>
<path d="" fill="#D3E0EC" transform="translate(0,0)"/>
<path d="" fill="#D3E0EC" transform="translate(0,0)"/>
<path d="" fill="#D3E0EC" transform="translate(0,0)"/>
<path d="" fill="#D3E0EC" transform="translate(0,0)"/>
<path d="" fill="#D3E0EC" transform="translate(0,0)"/>
<path d="" fill="#D3E0EC" transform="translate(0,0)"/>
<path d="" fill="#D3E0EC" transform="translate(0,0)"/>
<path d="" fill="#D3E0EC" transform="translate(0,0)"/>
<path d="" fill="#D3E0EC" transform="translate(0,0)"/>
<path d="" fill="#D3E0EC" transform="translate(0,0)"/>
<path d="" fill="#D3E0EC" transform="translate(0,0)"/>
<path d="" fill="#D3E0EC" transform="translate(0,0)"/>
<path d="" fill="#D3E0EC" transform="translate(0,0)"/>
<path d="" fill="#D3E0EC" transform="translate(0,0)"/>
<path d="" fill="#D3E0EC" transform="translate(0,0)"/>
<path d="" fill="#D3E0EC" transform="translate(0,0)"/>
<path d="" fill="#D3E0EC" transform="translate(0,0)"/>
<path d="" fill="#D3E0EC" transform="translate(0,0)"/>
<path d="" fill="#D3E0EC" transform="translate(0,0)"/>
<path d="" fill="#D3E0EC" transform="translate(0,0)"/>
<path d="" fill="#D3E0EC" transform="translate(0,0)"/>
<path d="" fill="#D3E0EC" transform="translate(0,0)"/>
<path d="" fill="#D3E0EC" transform="translate(0,0)"/>
<path d="" fill="#D3E0EC" transform="translate(0,0)"/>
<path d="" fill="#D3E0EC" transform="translate(0,0)"/>
<path d="" fill="#D3E0EC" transform="translate(0,0)"/>
<path d="" fill="#D3E0EC" transform="translate(0,0)"/>
<path d="" fill="#D3E0EC" transform="translate(0,0)"/>
<path d="" fill="#D3E0EC" transform="translate(0,0)"/>
<path d="" fill="#D3E0EC" transform="translate(0,0)"/>
<path d="" fill="#D3E0EC" transform="translate(0,0)"/>
<path d="" fill="#D3E0EC" transform="translate(0,0)"/>
<path d="" fill="#D3E0EC" transform="translate(0,0)"/>
<path d="" fill="#D3E0EC" transform="translate(0,0)"/>
<path d="" fill="#D3E0EC" transform="translate(0,0)"/>
<path d="" fill="#D3E0EC" transform="translate(0,0)"/>
<path d="" fill="#D3E0EC" transform="translate(0,0)"/>
<path d="" fill="#D3E0EC" transform="translate(0,0)"/>
<path d="" fill="#D3E0EC" transform="translate(0,0)"/>
<path d="" fill="#D3E0EC" transform="translate(0,0)"/>
<path d="" fill="#D3E0EC" transform="translate(0,0)"/>
<path d="" fill="#D3E0EC" transform="translate(0,0)"/>
<path d="" fill="#D3E0EC" transform="translate(0,0)"/>
<path d="" fill="#D3E0EC" transform="translate(0,0)"/>
<path d="" fill="#D3E0EC" transform="translate(0,0)"/>
<path d="" fill="#D3E0EC" transform="translate(0,0)"/>
<path d="" fill="#D3E0EC" transform="translate(0,0)"/>
<path d="" fill="#D3E0EC" transform="translate(0,0)"/>
<path d="" fill="#D3E0EC" transform="translate(0,0)"/>
<path d="" fill="#D3E0EC" transform="translate(0,0)"/>
<path d="" fill="#D3E0EC" transform="translate(0,0)"/>
<path d="" fill="#D3E0EC" transform="translate(0,0)"/>
<path d="" fill="#D3E0EC" transform="translate(0,0)"/>
<path d="" fill="#D3E0EC" transform="translate(0,0)"/>
<path d="" fill="#D3E0EC" transform="translate(0,0)"/>
<path d="" fill="#D3E0EC" transform="translate(0,0)"/>
<path d="" fill="#D3E0EC" transform="translate(0,0)"/>
<path d="" fill="#D3E0EC" transform="translate(0,0)"/>
<path d="" fill="#D3E0EC" transform="translate(0,0)"/>
<path d="" fill="#D3E0EC" transform="translate(0,0)"/>
<path d="" fill="#D3E0EC" transform="translate(0,0)"/>
<path d="" fill="#D3E0EC" transform="translate(0,0)"/>
<path d="" fill="#D3E0EC" transform="translate(0,0)"/>
<path d="" fill="#D3E0EC" transform="translate(0,0)"/>
<path d="" fill="#D3E0EC" transform="translate(0,0)"/>
<path d="" fill="#D3E0EC" transform="translate(0,0)"/>
<path d="" fill="#D3E0EC" transform="translate(0,0)"/>
<path d="" fill="#D3E0EC" transform="translate(0,0)"/>
<path d="" fill="#D3E0EC" transform="translate(0,0)"/>
<path d="" fill="#D3E0EC" transform="translate(0,0)"/>
<path d="" fill="#D3E0EC" transform="translate(0,0)"/>
<path d="" fill="#D3E0EC" transform="translate(0,0)"/>
<path d="" fill="#D3E0EC" transform="translate(0,0)"/>
<path d="" fill="#D3E0EC" transform="translate(0,0)"/>
<path d="" fill="#D3E0EC" transform="translate(0,0)"/>
<path d="" fill="#D3E0EC" transform="translate(0,0)"/>
<path d="" fill="#D3E0EC" transform="translate(0,0)"/>
<path d="" fill="#D3E0EC" transform="translate(0,0)"/>
<path d="" fill="#D3E0EC" transform="translate(0,0)"/>
<path d="" fill="#D3E0EC" transform="translate(0,0)"/>
<path d="" fill="#D3E0EC" transform="translate(0,0)"/>
<path d="" fill="#D3E0EC" transform="translate(0,0)"/>
<path d="" fill="#D3E0EC" transform="translate(0,0)"/>
<path d="" fill="#D3E0EC" transform="translate(0,0)"/>
<path d="" fill="#D3E0EC" transform="translate(0,0)"/>
<path d="" fill="#D3E0EC" transform="translate(0,0)"/>
<path d="" fill="#D3E0EC" transform="translate(0,0)"/>
<path d="" fill="#D3E0EC" transform="translate(0,0)"/>
<path d="" fill="#D3E0EC" transform="translate(0,0)"/>
<path d="" fill="#D3E0EC" transform="translate(0,0)"/>
<path d="" fill="#D3E0EC" transform="translate(0,0)"/>
<path d="" fill="#D3E0EC" transform="translate(0,0)"/>
<path d="" fill="#D3E0EC" transform="translate(0,0)"/>
<path d="" fill="#D3E0EC" transform="translate(0,0)"/>
<path d="" fill="#D3E0EC" transform="translate(0,0)"/>
<path d="" fill="#D3E0EC" transform="translate(0,0)"/>
<path d="" fill="#D3E0EC" transform="translate(0,0)"/>
<path d="" fill="#D3E0EC" transform="translate(0,0)"/>
<path d="" fill="#D3E0EC" transform="translate(0,0)"/>
<path d="" fill="#D3E0EC" transform="translate(0,0)"/>
<path d="" fill="#D3E0EC" transform="translate(0,0)"/>
<path d="" fill="#D3E0EC" transform="translate(0,0)"/>
<path d="" fill="#D3E0EC" transform="translate(0,0)"/>
<path d="" fill="#D3E0EC" transform="translate(0,0)"/>
<path d="" fill="#D3E0EC" transform="translate(0,0)"/>
<path d="" fill="#D3E0EC" transform="translate(0,0)"/>
</svg>
